<?xml version="1.0" encoding="utf-8"?>
<!-- Generator: Adobe Illustrator 22.1.0, SVG Export Plug-In . SVG Version: 6.00 Build 0)  -->
<svg version="1.1" id="圖層_1" xmlns="http://www.w3.org/2000/svg" xmlns:xlink="http://www.w3.org/1999/xlink" x="0px" y="0px"
	 viewBox="0 0 1024 1024" style="enable-background:new 0 0 1024 1024;" xml:space="preserve">
<style type="text/css">
	.st0{fill:#929292;}
</style>
<path class="st0" d="M593.4-257h-16.5"/>
<g>
	<path class="st0" d="M263.1,715.4c0-54.8,44.4-99.2,99.2-99.2s99.2,44.4,99.2,99.2s-44.4,99.2-99.2,99.2S263.1,770.1,263.1,715.4z
		 M345.9,731.9H379v-33.1h-33.1V731.9z M428.6,715.4c0-36.5-29.6-66.1-66.1-66.1s-66.1,29.6-66.1,66.1c0,36.5,29.6,66.1,66.1,66.1
		S428.6,751.9,428.6,715.4z"/>
	<path class="st0" d="M560.6,715.4c0-54.8,44.4-99.2,99.2-99.2s99.2,44.4,99.2,99.2s-44.4,99.2-99.2,99.2S560.6,770.1,560.6,715.4z
		 M643.4,731.9h33.1v-33.1h-33.1V731.9z M726,715.4c0-36.5-29.6-66.1-66.1-66.1c-36.5,0-66.1,29.6-66.1,66.1
		c0,36.5,29.6,66.1,66.1,66.1C696.4,781.5,726,751.9,726,715.4z"/>
</g>
<g>
	<path class="st0" d="M714.9,236.4L681.5,268c-24-23.6-50.3-41.5-78.8-53.7c-28.6-12.2-56.4-18.3-83.5-18.3
		c-33.7,0-65.9,8.3-96.4,24.9c-30.5,16.6-54.2,39.1-70.9,67.4c-16.8,28.4-25.2,58.4-25.2,90c0,32.4,8.7,63.1,26,92.3
		c17.4,29.2,41.3,52.1,72,68.7c30.6,16.7,64.2,25,100.6,25c44.3,0,81.7-12.5,112.3-37.4c30.6-25,48.8-57.3,54.4-97.1H554.9v-41.5
		h185.5c-0.4,66.5-20.1,119.3-59.2,158.4c-39.1,39.1-91.4,58.7-156.9,58.7c-79.6,0-142.6-27.1-189-81.3
		c-35.7-41.7-53.5-90-53.5-144.8c0-40.8,10.2-78.7,30.7-113.8c20.5-35.1,48.6-62.6,84.3-82.3c35.7-19.8,76.1-29.7,121.1-29.7
		c36.5,0,70.8,6.6,103,19.7C652.9,186.2,684.3,207.3,714.9,236.4z"/>
</g>
<g>
	<path class="st0" d="M529.6,647.5l58.2,58.2l-18.4,18.4l-58.2-58.2l-58.6,58.6l-18.4-18.4l58.6-58.6l-59.6-59.6l18.4-18.4
		l59.6,59.6l59.2-59.2l18.4,18.4L529.6,647.5z"/>
</g>
</svg>
