<?xml version="1.0" encoding="utf-8"?>
<!-- Generator: Adobe Illustrator 23.0.1, SVG Export Plug-In . SVG Version: 6.00 Build 0)  -->
<svg version="1.1" id="圖層_1" xmlns="http://www.w3.org/2000/svg" xmlns:xlink="http://www.w3.org/1999/xlink" x="0px" y="0px"
	 viewBox="0 0 200 200" style="enable-background:new 0 0 200 200;" xml:space="preserve">
<style type="text/css">
	.st0{fill:none;stroke:#000000;stroke-miterlimit:10;}
	.st1{fill:none;stroke:#000000;stroke-width:3;stroke-miterlimit:10;}
	.st2{fill:#FFFFFF;}
</style>
<g>
	<g>
		<line class="st0" x1="13.1" y1="100.2" x2="187.4" y2="100.2"/>
		<line class="st0" x1="14.4" y1="115.3" x2="186.1" y2="85.1"/>
		<line class="st0" x1="18.4" y1="130" x2="182.1" y2="70.4"/>
		<line class="st0" x1="24.8" y1="143.8" x2="175.7" y2="56.6"/>
		<line class="st0" x1="33.5" y1="156.2" x2="167" y2="44.2"/>
		<line class="st0" x1="44.2" y1="166.9" x2="156.3" y2="33.4"/>
		<line class="st0" x1="56.7" y1="175.7" x2="143.8" y2="24.7"/>
		<line class="st0" x1="70.4" y1="182.1" x2="130.1" y2="18.3"/>
		<line class="st0" x1="85.1" y1="186" x2="115.4" y2="14.4"/>
		<line class="st0" x1="100.3" y1="187.3" x2="100.3" y2="13"/>
		<line class="st0" x1="115.4" y1="186" x2="85.1" y2="14.4"/>
		<line class="st0" x1="130.1" y1="182.1" x2="70.4" y2="18.3"/>
		<line class="st0" x1="143.8" y1="175.7" x2="56.7" y2="24.7"/>
		<line class="st0" x1="156.3" y1="166.9" x2="44.2" y2="33.4"/>
		<line class="st0" x1="167" y1="156.2" x2="33.5" y2="44.2"/>
		<line class="st0" x1="175.7" y1="143.8" x2="24.8" y2="56.6"/>
		<line class="st0" x1="182.1" y1="130" x2="18.4" y2="70.4"/>
		<line class="st0" x1="186.1" y1="115.3" x2="14.4" y2="85.1"/>
	</g>
	<g>
		<line class="st0" x1="13.4" y1="107.8" x2="187.1" y2="92.6"/>
		<line class="st0" x1="16.1" y1="122.7" x2="184.4" y2="77.6"/>
		<line class="st0" x1="21.3" y1="137" x2="179.2" y2="63.4"/>
		<line class="st0" x1="28.9" y1="150.2" x2="171.6" y2="50.2"/>
		<line class="st0" x1="38.6" y1="161.8" x2="161.9" y2="38.6"/>
		<line class="st0" x1="50.3" y1="171.6" x2="150.2" y2="28.8"/>
		<line class="st0" x1="63.4" y1="179.2" x2="137.1" y2="21.2"/>
		<line class="st0" x1="77.7" y1="184.4" x2="122.8" y2="16"/>
		<line class="st0" x1="92.7" y1="187" x2="107.8" y2="13.4"/>
		<line class="st0" x1="107.8" y1="187" x2="92.7" y2="13.4"/>
		<line class="st0" x1="122.8" y1="184.4" x2="77.7" y2="16"/>
		<line class="st0" x1="137.1" y1="179.2" x2="63.4" y2="21.2"/>
		<line class="st0" x1="150.2" y1="171.6" x2="50.3" y2="28.8"/>
		<line class="st0" x1="161.9" y1="161.8" x2="38.6" y2="38.6"/>
		<line class="st0" x1="171.6" y1="150.2" x2="28.9" y2="50.2"/>
		<line class="st0" x1="179.2" y1="137" x2="21.3" y2="63.4"/>
		<line class="st0" x1="184.4" y1="122.7" x2="16.1" y2="77.6"/>
		<line class="st0" x1="187.1" y1="107.8" x2="13.4" y2="92.6"/>
	</g>
	<circle class="st1" cx="100.3" cy="100.2" r="94"/>
	<circle class="st2" cx="100.3" cy="100.2" r="73.2"/>
</g>
<g>
	<path d="M60.3,105.8c-1.2,0-1.6-0.4-1.6-1.4c0-0.2,0-0.3,0.1-0.5c-1.9,1.1-7.4,2.9-8.5,2.9c-0.9,0-1.4-0.6-1.4-1.4
		c0-0.8,0.4-1.2,1.2-1.4c0.9-0.2,2.3-0.5,4.3-1.2c4-1.4,6.4-2.6,9.1-4.6c1-0.7,1.3-0.9,1.8-0.9c0.8,0,1.5,0.5,1.5,1.1
		c2.4,1.4,5.9,2.8,9.8,3.9c1.6,0.5,3.2,0.8,3.8,0.9c0.8,0.2,1.4,0.5,1.4,1.4c0,0.8-0.6,1.5-1.4,1.5c-1,0-3.9-0.7-8.5-2.4
		c0.1,0.2,0.1,0.3,0.1,0.5c0,1-0.5,1.5-1.4,1.5H60.3z M66.7,89.9h11.6c1.9,0,2.7,0.8,2.7,2.7v4c0,1-0.6,1.5-1.5,1.5
		c-0.9,0-1.5-0.4-1.5-1.5v-3.1c0-0.9-0.2-1.1-1.1-1.1H66.7v3.1c0,1-0.6,1.4-1.5,1.4c-0.9,0-1.4-0.4-1.4-1.4v-3.1H53.5
		c-0.9,0-1.1,0.3-1.1,1.1v3.4c0,1-0.6,1.4-1.4,1.4c-0.8,0-1.4-0.4-1.4-1.4v-4.3c0-1.9,0.8-2.7,2.7-2.7h11.5v-1.6H52.7
		c-0.9,0-1.3-0.5-1.3-1.3c0-0.8,0.4-1.3,1.3-1.3h25.1c0.9,0,1.3,0.5,1.3,1.3c0,0.8-0.4,1.3-1.3,1.3h-11V89.9z M62.9,110.4h-8.9
		c-0.9,0-1.4-0.5-1.4-1.3c0-0.8,0.4-1.4,1.4-1.4h21.8c1.7,0,2.4,0.7,2.4,2.4c0,5.4-0.7,6.3-4,6.3c-2.2,0-3.7,0-3.7-1.7
		c0-0.8,0.5-1.3,1.3-1.3c0.5,0,1.4,0.2,2.3,0.2c1,0,1.2-0.4,1.2-2.6c0-0.5-0.2-0.7-0.7-0.7H66v6.4c0,1.1-0.6,1.5-1.5,1.5
		c-0.9,0-1.5-0.5-1.5-1.5V110.4z M55,96c-0.7,0-1-0.4-1-1c0-0.6,0.3-1,1-1h6.1c0.7,0,1,0.4,1,1c0,0.6-0.3,1-1,1H55z M55,99.3
		c-0.7,0-1-0.4-1-1c0-0.6,0.3-1,1-1h6c0.7,0,1,0.4,1,1c0,0.6-0.3,1-1,1H55z M70.6,103.2c-2.1-0.9-3.7-1.8-5.5-2.8
		c-1.4,1-3,2-4.7,2.8H70.6z M69.3,96c-0.7,0-1-0.4-1-1c0-0.6,0.3-1,1-1h6.3c0.7,0,1,0.4,1,1c0,0.6-0.3,1-1,1H69.3z M69.4,99.2
		c-0.7,0-1-0.4-1-1c0-0.6,0.3-1,1-1h6.3c0.7,0,1,0.4,1,1c0,0.6-0.3,1-1,1H69.4z"/>
	<path d="M92.2,89.1c-0.2,1.3-0.5,3-0.9,4.6h3.4c1.9,0,2.7,0.8,2.7,2.2c0,1.9-1.7,14.6-9.2,21c-0.5,0.5-0.9,0.6-1.4,0.6
		c-0.7,0-1.4-0.6-1.4-1.4c0-0.5,0.1-0.8,0.6-1.3c2.1-2.1,4.5-4.5,6-8.7c-0.5-0.6-1.5-1.6-2.7-2.7c-0.5-0.5-0.8-0.9-0.8-1.4
		c0-0.8,0.7-1.5,1.4-1.5c0.7,0,1.6,0.9,3.2,2.6c0.8-2.9,1.3-5.6,1.3-6.3c0-0.4-0.1-0.5-0.5-0.5h-3.3c-0.9,2.8-2.6,5.9-3.5,6.8
		c-0.4,0.4-0.9,0.6-1.3,0.6c-0.8,0-1.5-0.6-1.5-1.4c0-0.5,0.2-0.8,0.9-1.8c1.1-1.5,2.4-3.6,3.5-7.8c0.3-1.4,0.6-2.7,0.7-4h-2.6
		c-1,0-1.4-0.6-1.4-1.4c0-0.8,0.4-1.4,1.4-1.4h10.8c1,0,1.4,0.6,1.4,1.4c0,0.8-0.4,1.4-1.4,1.4H92.2z M106.7,105.9
		c0.3,1.1,0.9,2.7,1.7,3.7c1.3-1,2.6-2.1,3-2.4c0.7-0.6,1.1-1,1.7-1c0.7,0,1.4,0.6,1.4,1.4c0,0.6-0.4,1-0.8,1.4
		c-1.2,1.2-2.5,2.1-3.7,3c1.1,1.2,2.6,2.4,3.3,2.4c0.4,0,0.6-0.3,1.1-1.4c0.4-1,0.8-1.3,1.5-1.3c0.8,0,1.4,0.6,1.4,1.3
		c0,0.8-1.2,4.4-3.6,4.4c-2.2,0-4.8-2.3-6.1-3.9c-5.6,3.2-9.7,3.9-10.3,3.9c-0.9,0-1.4-0.8-1.4-1.5c0-0.7,0.6-1.2,1.5-1.4
		c2.6-0.6,5.6-1.6,8.6-3.3c-0.9-1.5-1.6-3.3-2-5l-5.9,0.6c-1.1,0.1-1.6-0.5-1.6-1.4c0-1,0.7-1.3,1.3-1.3l5.6-0.6
		c-0.1-0.4-0.3-1.5-0.3-2c0-0.9,0.7-1.4,1.4-1.4s1.2,0.4,1.3,1c0.1,0.6,0.2,1.4,0.3,2.1l3.1-0.3c-0.5-0.4-1-1-1.7-1.6
		c-0.5-0.5-0.5-0.7-0.5-1.1c0-0.5,0.5-1.2,1.3-1.2c0.7,0,1.9,1.3,2.4,2c0.3,0.4,0.4,0.6,0.4,0.9c0,0.1-0.1,0.6-0.4,0.8l5.1-0.6
		c0.9-0.1,1.5,0.5,1.5,1.3s-0.4,1.3-1.2,1.4L106.7,105.9z M103.7,89.1c-0.2-0.6-0.6-2.2-0.6-3s0.6-1.3,1.4-1.3
		c0.8,0,1.2,0.5,1.4,1.3c0.2,1,0.4,1.9,0.6,2.7l4.8-0.5c-0.4-0.3-0.9-0.8-1.1-1c-0.8-0.7-1-0.9-1-1.4c0-0.6,0.7-1.3,1.3-1.3
		c0.7,0,3,1.7,3,2.8c0,0.3-0.1,0.5-0.2,0.6l2.4-0.3c1.1-0.1,1.5,0.6,1.5,1.2c0,0.9-0.5,1.3-1.2,1.4l-8.7,1c0.3,0.8,1.2,2.3,1.7,2.9
		c0.7-0.4,2-1.3,2.8-2c0.9-0.7,1.3-1.1,2-1.1c0.6,0,1.2,0.6,1.2,1.4c0,0.6-0.3,1-1.4,1.8c-0.9,0.7-2,1.4-2.9,1.9
		c1,0.9,2.6,1.9,3.2,1.9c0.4,0,0.6-0.3,0.9-0.8c0.5-1.1,0.6-1.6,1.6-1.6c0.7,0,1.3,0.5,1.3,1.2c0,1.3-1.3,4.2-3.6,4.2
		c-1.9,0-4.9-2.4-5.9-3.6c-4.1,1.9-7.7,2.8-8.7,2.8c-0.7,0-1.3-0.6-1.3-1.4s0.4-1.2,1.5-1.4c3.2-0.7,5.3-1.5,6.8-2.2
		c-0.7-0.9-1.6-2.5-2.1-3.7L99,92.3c-0.8,0.1-1.4-0.5-1.4-1.3c0-0.9,0.6-1.3,1.3-1.3L103.7,89.1z"/>
	<path d="M128.3,105.7c0,1.2-1.4,5.2-3.3,8.2c-0.5,0.8-1,1.4-1.8,1.4c-1,0-1.8-0.8-1.8-1.6c0-0.6,0.6-1.2,1.1-2
		c1-1.6,1.9-3.3,2.5-5.7c0.4-1.4,0.8-1.8,1.5-1.8C127.6,104.2,128.3,104.7,128.3,105.7z M138.6,88.9c-0.2,1.6-0.9,3.4-1.5,4.6
		c4.3,1.7,4.6,1.8,4.6,3c0,0.7-0.7,1.5-1.5,1.5c-0.5,0-1.1-0.4-1.8-0.6c-0.8-0.3-1.9-0.8-3-1.3c-3.5,4.7-10.2,6.4-11.6,6.4
		c-1,0-1.5-0.8-1.5-1.5c0-0.5,0.3-1.2,1.3-1.4c2.4-0.6,6.4-1.9,8.9-4.6c-1.4-0.5-3-1-4.3-1.4c-0.9-0.3-1.3-0.6-1.3-1.5
		c0-0.7,0.5-1.4,1.3-1.4c0.9,0,4.8,1.3,6,1.7c0.6-1,1.1-2.4,1.3-3.6h-11.5c-1,0-1.4-0.6-1.4-1.4c0-0.8,0.4-1.4,1.4-1.4h24.8
		c2,0,3,1,3,3c0,0.4-0.8,9.5-2.4,11.5c-0.9,1.1-1.9,1.3-4.4,1.3c-1.7,0-3.5,0-3.5-1.8c0-0.8,0.6-1.4,1.3-1.4c0.5,0,1.5,0.3,2.7,0.3
		c1.6,0,1.8-0.4,2.5-4.4c0.3-1.6,0.6-3.8,0.6-4.8c0-0.5-0.3-0.8-0.8-0.8H138.6z M130.6,104.4c0-1,0.6-1.5,1.5-1.5
		c0.9,0,1.5,0.5,1.5,1.5v7.7c0,0.9,0.1,1.2,0.5,1.4c0.5,0.3,1.1,0.3,5.1,0.3c3.2,0,4,0,4.6-0.5c0.8-0.6,0.8-1.9,1-2.7
		c0.2-1,0.8-1.4,1.5-1.4c0.9,0,1.5,0.6,1.5,1.7c0,0.9-0.4,2.3-0.8,3.3c-1.2,2.7-2.7,2.7-9.7,2.7c-4.6,0-6.8-0.3-6.8-3.8V104.4z
		 M138.3,102.6c0.9,0.8,4,3.5,4,4.5c0,0.8-0.8,1.7-1.6,1.7c-0.5,0-0.8-0.3-1.5-1c-0.8-0.9-1.9-2-2.7-2.7c-1-0.9-1.3-1.2-1.3-1.8
		c0-0.7,0.6-1.5,1.5-1.5C137.2,101.7,137.6,102,138.3,102.6z M149.5,105.1c0.7,1,3.9,6.1,3.9,7.1c0,0.9-0.8,1.7-1.8,1.7
		c-0.6,0-1-0.3-1.5-1.3c-0.8-1.9-1.8-3.7-2.9-5.2c-0.5-0.8-1-1.3-1-2c0-0.8,0.7-1.6,1.5-1.6C148.4,103.8,148.8,104.1,149.5,105.1z"
		/>
</g>
</svg>
