<?xml version="1.0" encoding="utf-8"?>
<!-- Generator: Adobe Illustrator 23.0.1, SVG Export Plug-In . SVG Version: 6.00 Build 0)  -->
<svg version="1.1" id="圖層_1" xmlns="http://www.w3.org/2000/svg" xmlns:xlink="http://www.w3.org/1999/xlink" x="0px" y="0px"
	 viewBox="0 0 200 200" style="enable-background:new 0 0 200 200;" xml:space="preserve">
<style type="text/css">
	.st0{fill:none;stroke:#000000;stroke-miterlimit:10;}
	.st1{fill:none;stroke:#000000;stroke-width:3;stroke-miterlimit:10;}
	.st2{fill:#FFFFFF;}
</style>
<g>
	<g>
		<line class="st0" x1="13.1" y1="100.3" x2="187.4" y2="100.3"/>
		<line class="st0" x1="14.4" y1="115.4" x2="186.1" y2="85.1"/>
		<line class="st0" x1="18.4" y1="130.1" x2="182.1" y2="70.5"/>
		<line class="st0" x1="24.8" y1="143.8" x2="175.7" y2="56.7"/>
		<line class="st0" x1="33.5" y1="156.3" x2="167" y2="44.2"/>
		<line class="st0" x1="44.2" y1="167" x2="156.3" y2="33.5"/>
		<line class="st0" x1="56.7" y1="175.7" x2="143.8" y2="24.8"/>
		<line class="st0" x1="70.4" y1="182.1" x2="130.1" y2="18.4"/>
		<line class="st0" x1="85.1" y1="186.1" x2="115.4" y2="14.4"/>
		<line class="st0" x1="100.3" y1="187.4" x2="100.3" y2="13.1"/>
		<line class="st0" x1="115.4" y1="186.1" x2="85.1" y2="14.4"/>
		<line class="st0" x1="130.1" y1="182.1" x2="70.4" y2="18.4"/>
		<line class="st0" x1="143.8" y1="175.7" x2="56.7" y2="24.8"/>
		<line class="st0" x1="156.3" y1="167" x2="44.2" y2="33.5"/>
		<line class="st0" x1="167" y1="156.3" x2="33.5" y2="44.2"/>
		<line class="st0" x1="175.7" y1="143.8" x2="24.8" y2="56.7"/>
		<line class="st0" x1="182.1" y1="130.1" x2="18.4" y2="70.5"/>
		<line class="st0" x1="186.1" y1="115.4" x2="14.4" y2="85.1"/>
	</g>
	<g>
		<line class="st0" x1="13.4" y1="107.8" x2="187.1" y2="92.7"/>
		<line class="st0" x1="16.1" y1="122.8" x2="184.4" y2="77.7"/>
		<line class="st0" x1="21.3" y1="137.1" x2="179.2" y2="63.4"/>
		<line class="st0" x1="28.9" y1="150.2" x2="171.6" y2="50.3"/>
		<line class="st0" x1="38.6" y1="161.9" x2="161.9" y2="38.6"/>
		<line class="st0" x1="50.3" y1="171.6" x2="150.2" y2="28.9"/>
		<line class="st0" x1="63.4" y1="179.2" x2="137.1" y2="21.3"/>
		<line class="st0" x1="77.7" y1="184.4" x2="122.8" y2="16.1"/>
		<line class="st0" x1="92.7" y1="187.1" x2="107.8" y2="13.4"/>
		<line class="st0" x1="107.8" y1="187.1" x2="92.7" y2="13.4"/>
		<line class="st0" x1="122.8" y1="184.4" x2="77.7" y2="16.1"/>
		<line class="st0" x1="137.1" y1="179.2" x2="63.4" y2="21.3"/>
		<line class="st0" x1="150.2" y1="171.6" x2="50.3" y2="28.9"/>
		<line class="st0" x1="161.9" y1="161.9" x2="38.6" y2="38.6"/>
		<line class="st0" x1="171.6" y1="150.2" x2="28.9" y2="50.3"/>
		<line class="st0" x1="179.2" y1="137.1" x2="21.3" y2="63.4"/>
		<line class="st0" x1="184.4" y1="122.8" x2="16.1" y2="77.7"/>
		<line class="st0" x1="187.1" y1="107.8" x2="13.4" y2="92.7"/>
	</g>
	<circle class="st1" cx="100.3" cy="100.3" r="94"/>
	<circle class="st2" cx="100.3" cy="100.3" r="73.2"/>
</g>
<g>
	<path d="M72.7,75.3h1.9c1,0,1.5,0.6,1.5,1.4c0,0.9-0.4,1.5-1.5,1.5h-1.9v8.1c0.4-0.2,1.1-0.5,1.8-0.8C75,85.3,75.4,85,76,85
		c0.7,0,1.3,0.7,1.3,1.5c0,0.8-0.6,1.2-1.2,1.5c-1.9,1-8.1,4-9.2,4c-0.9,0-1.5-0.8-1.5-1.6s0.4-1.2,1-1.4c1-0.4,2.3-0.9,3.4-1.4
		v-9.4h-1.9c-1,0-1.4-0.6-1.4-1.5c0-0.9,0.4-1.4,1.4-1.4h1.9v-7.9h-2.2c-1,0-1.5-0.6-1.5-1.5c0-0.9,0.4-1.4,1.5-1.4H75
		c1,0,1.4,0.6,1.4,1.4c0,0.9-0.4,1.5-1.4,1.5h-2.2V75.3z M88.9,85.2c0.9,1.2,1.8,2.2,2.9,3.1c0.9-0.6,2.1-1.5,2.8-2.3
		c0.3-0.3,0.6-0.6,1.2-0.6c0.8,0,1.5,0.6,1.5,1.6c0,0.8-0.6,1.2-3.2,3.2c1.2,1,2.7,1.8,3.5,2.3c0.7,0.4,1.1,0.8,1.1,1.3
		c0,0.8-0.6,1.5-1.4,1.5c-0.7,0-1.2-0.4-2.1-0.9c-2.2-1.5-4.9-3.5-7-6v6.3c0,1-0.6,1.5-1.5,1.5c-0.9,0-1.4-0.4-1.4-1.5v-6.3
		c-3,2.7-8.3,5.7-9.6,5.7c-0.8,0-1.4-0.7-1.4-1.5c0-0.8,0.3-1,1.4-1.5c1.2-0.5,6.6-3.2,9.2-6H81c-1.8,0-2.4-0.7-2.4-2.5v-2.1
		c0-1.8,0.7-2.5,2.4-2.5h13.2c1.8,0,2.5,0.7,2.5,2.5v2.1c0,1.7-0.8,2.5-2.5,2.5H88.9z M77.6,76.4c-0.9,0-1.3-0.5-1.3-1.4
		c0-0.8,0.4-1.3,1.3-1.3h19.9c0.9,0,1.3,0.5,1.3,1.3c0,0.8-0.4,1.4-1.3,1.4H77.6z M77.6,66.4c0-1.7,0.9-2.5,2.5-2.5h14.9
		c1.7,0,2.5,0.9,2.5,2.5v3.3c0,1.7-0.8,2.5-2.5,2.5H80.1c-1.7,0-2.5-0.8-2.5-2.5V66.4z M83.4,66.3h-2.3c-0.5,0-0.7,0.1-0.7,0.7v2.1
		c0,0.5,0.1,0.7,0.7,0.7h2.3V66.3z M82,80.6c-0.6,0-0.6,0.1-0.6,1.5c0,0.4,0.2,0.6,0.6,0.6h11.2c0.6,0,0.6-0.1,0.6-1.5
		c0-0.4-0.2-0.6-0.6-0.6H82z M86,66.3v3.4h3v-3.4H86z M91.6,66.3v3.4H94c0.5,0,0.7-0.1,0.7-0.7v-2c0-0.5-0.2-0.7-0.7-0.7H91.6z"/>
	<path d="M108.3,73h1.8c1,0,1.4,0.6,1.4,1.5c0,0.9-0.4,1.4-1.4,1.4h-1.8v9.6c1-0.5,1.7-1.1,2.6-1.1c0.6,0,1.4,0.7,1.4,1.5
		c0,0.6-0.3,1-1,1.4c-1.6,0.9-6.9,3.5-8.3,3.5c-0.9,0-1.3-0.7-1.3-1.6c0-0.6,0.3-1,1-1.4c0.5-0.3,2-0.8,2.9-1.2V75.9h-2.3
		c-1,0-1.4-0.6-1.4-1.4c0-0.9,0.4-1.5,1.4-1.5h2.3v-7.4c0-1,0.6-1.4,1.4-1.4c0.9,0,1.5,0.4,1.5,1.4V73z M126.7,87v4
		c0,1.5,0.2,1.8,1.6,1.8c3,0,3.1,0,3.5-2.4c0.1-0.6,0.6-1.1,1.3-1.1c0.9,0,1.6,0.5,1.6,1.5c0,0.8-0.3,2-0.7,2.9
		c-0.8,1.8-2.7,1.8-5.8,1.8c-3.4,0-4.4-0.4-4.4-3.5V87h-3.2c-1.3,6.3-7.9,8.7-10.5,8.7c-0.8,0-1.3-0.7-1.3-1.5s0.4-1.3,1.5-1.5
		c4.6-0.9,6.8-3.6,7.2-5.7h-1.9c-1.5,0-2.3-0.8-2.3-2.3v-6.8c0-1.5,0.8-2.3,2.3-2.3h13.7c1.5,0,2.3,0.8,2.3,2.3v6.8
		c0,1.5-0.8,2.3-2.3,2.3H126.7z M124.3,65.4h7.5c0.9,0,1.3,0.5,1.3,1.3c0,0.8-0.4,1.3-1.3,1.3h-2c-0.3,1-0.8,2.3-1.2,3.3h4.7
		c0.9,0,1.3,0.5,1.3,1.3c0,0.8-0.4,1.3-1.3,1.3H113c-0.9,0-1.3-0.5-1.3-1.3c0-0.8,0.4-1.3,1.3-1.3h3.9c-0.3-1-0.8-2.3-1.3-3.3h-1.7
		c-0.9,0-1.3-0.5-1.3-1.3c0-0.8,0.4-1.3,1.3-1.3h7.5v-1.2c0-1,0.6-1.4,1.4-1.4c0.9,0,1.4,0.4,1.4,1.4V65.4z M128.9,80v-1.3
		c0-0.4-0.2-0.6-0.7-0.6h-11.5c-0.5,0-0.7,0.2-0.7,0.6V80H128.9z M128.9,82.4h-12.9v1.4c0,0.5,0.2,0.7,0.7,0.7h11.5
		c0.5,0,0.7-0.2,0.7-0.7V82.4z M125.6,71.4c0.5-1.1,0.9-2.2,1.2-3.3h-8.3c0.4,0.8,1,2.4,1.3,3.3H125.6z"/>
	<path d="M80.1,114.3c-0.2,1.4-0.6,3.2-0.9,4.4h11.3c1.6,0,2.7,0.5,2.7,2.1c0,2.2-2.7,7.5-5.6,10.9c3.2,2.4,7.5,3.8,8.2,4
		c1,0.3,1.9,0.5,1.9,1.7s-0.6,1.7-1.5,1.7c-0.9,0-6.1-1.6-10.9-5.2c-3.5,3.2-9.5,5.3-11.1,5.3c-1,0-1.5-0.7-1.5-1.7
		c0-1,0.9-1.3,1.9-1.6c5.1-1.4,7.9-3.7,8.4-4c-2.2-2.3-4.2-5.2-5.5-8.2c-2.6,6.6-8.5,12.7-10.4,12.7c-1,0-1.7-0.8-1.7-1.7
		c0-0.8,0.5-1.2,1.4-1.9c4.4-3.4,8.5-9.8,9.8-18.5h-8.9c-1,0-1.5-0.6-1.5-1.5c0-0.9,0.5-1.5,1.5-1.5h9.3c0.1-0.9,0.2-2.5,0.3-3.5
		c0-0.8,0.4-1.8,1.7-1.8c1,0,1.6,0.5,1.6,1.5c0,1.1-0.3,3.6-0.3,3.7h16.8c1.1,0,1.5,0.6,1.5,1.5c0,0.9-0.4,1.5-1.5,1.5H80.1z
		 M80.1,121.7c1.1,2.8,3,5.9,5.2,8.1c2.7-3,4.4-7.1,4.4-7.7c0-0.4-0.2-0.4-0.5-0.4H80.1z"/>
	<path d="M119.6,111.8v2.1h10.3c0.9,0,1.3,0.5,1.3,1.3c0,0.8-0.4,1.3-1.3,1.3h-10.3v2.3h13.5c0.9,0,1.4,0.5,1.4,1.3
		c0,0.8-0.4,1.4-1.4,1.4h-13.5v3.6h4.6c0.7-0.9,1.1-1.6,1.7-2.5c0.3-0.5,0.8-0.7,1.2-0.7c0.8,0,1.5,0.5,1.5,1.3
		c0,0.5-0.5,1.3-0.9,1.9h5.5c1,0,1.4,0.5,1.4,1.4c0,0.8-0.4,1.4-1.4,1.4h-29.7c-1,0-1.4-0.5-1.4-1.4c0-0.8,0.4-1.4,1.4-1.4h5.8
		c-0.9-1.2-1-1.3-1-1.8c0-0.7,0.8-1.4,1.6-1.4c0.5,0,1.3,0,2.8,3.2h4.1v-3.6h-13.5c-0.9,0-1.3-0.5-1.3-1.4c0-0.8,0.4-1.3,1.3-1.3
		h13.5v-2.3h-10.2c-0.9,0-1.3-0.5-1.3-1.3c0-0.8,0.4-1.3,1.3-1.3h10.2v-2.1h-12c-0.9,0-1.3-0.5-1.3-1.3c0-0.8,0.4-1.3,1.3-1.3h6.6
		c-0.9-1.2-1-1.3-1-1.7c0-0.8,0.9-1.4,1.7-1.4c0.9,0,1.4,0.7,2.7,3.1h7.1c0.8-1.3,1.3-2.3,1.5-2.6c0.3-0.4,0.5-0.5,1.1-0.5
		c0.9,0,1.7,0.6,1.7,1.3c0,0.5-0.4,1.2-0.9,1.9h6.3c0.9,0,1.3,0.5,1.3,1.3c0,0.8-0.4,1.3-1.3,1.3H119.6z M106,132.4
		c0-2,0.7-2.7,2.7-2.7h19c2,0,2.7,0.7,2.7,2.7v3.4c0,2-0.7,2.7-2.7,2.7h-19c-2,0-2.7-0.7-2.7-2.7V132.4z M109.7,132.3
		c-0.6,0-0.9,0.2-0.9,0.9v1.6c0,0.6,0.2,0.9,0.9,0.9h16.9c0.6,0,0.9-0.2,0.9-0.9v-1.6c0-0.6-0.2-0.9-0.9-0.9H109.7z"/>
</g>
</svg>
