<?xml version="1.0" encoding="utf-8"?>
<!-- Generator: Adobe Illustrator 23.0.1, SVG Export Plug-In . SVG Version: 6.00 Build 0)  -->
<svg version="1.1" id="圖層_1" xmlns="http://www.w3.org/2000/svg" xmlns:xlink="http://www.w3.org/1999/xlink" x="0px" y="0px"
	 viewBox="0 0 200 200" style="enable-background:new 0 0 200 200;" xml:space="preserve">
<style type="text/css">
	.st0{fill:none;stroke:#000000;stroke-miterlimit:10;}
	.st1{fill:none;stroke:#000000;stroke-width:3;stroke-miterlimit:10;}
	.st2{fill:#FFFFFF;}
</style>
<g>
	<g>
		<line class="st0" x1="12.8" y1="99.8" x2="187.1" y2="99.8"/>
		<line class="st0" x1="14.1" y1="114.9" x2="185.7" y2="84.7"/>
		<line class="st0" x1="18" y1="129.6" x2="181.8" y2="70"/>
		<line class="st0" x1="24.5" y1="143.4" x2="175.4" y2="56.2"/>
		<line class="st0" x1="33.2" y1="155.8" x2="166.7" y2="43.8"/>
		<line class="st0" x1="43.9" y1="166.6" x2="155.9" y2="33.1"/>
		<line class="st0" x1="56.4" y1="175.3" x2="143.5" y2="24.3"/>
		<line class="st0" x1="70.1" y1="181.7" x2="129.7" y2="17.9"/>
		<line class="st0" x1="84.8" y1="185.6" x2="115.1" y2="14"/>
		<line class="st0" x1="99.9" y1="187" x2="99.9" y2="12.7"/>
		<line class="st0" x1="115.1" y1="185.6" x2="84.8" y2="14"/>
		<line class="st0" x1="129.7" y1="181.7" x2="70.1" y2="17.9"/>
		<line class="st0" x1="143.5" y1="175.3" x2="56.4" y2="24.3"/>
		<line class="st0" x1="155.9" y1="166.6" x2="43.9" y2="33.1"/>
		<line class="st0" x1="166.7" y1="155.8" x2="33.2" y2="43.8"/>
		<line class="st0" x1="175.4" y1="143.4" x2="24.5" y2="56.2"/>
		<line class="st0" x1="181.8" y1="129.6" x2="18" y2="70"/>
		<line class="st0" x1="185.7" y1="114.9" x2="14.1" y2="84.7"/>
	</g>
	<g>
		<line class="st0" x1="13.1" y1="107.4" x2="186.7" y2="92.2"/>
		<line class="st0" x1="15.8" y1="122.4" x2="184.1" y2="77.3"/>
		<line class="st0" x1="21" y1="136.6" x2="178.9" y2="63"/>
		<line class="st0" x1="28.5" y1="149.8" x2="171.3" y2="49.8"/>
		<line class="st0" x1="38.3" y1="161.4" x2="161.5" y2="38.2"/>
		<line class="st0" x1="49.9" y1="171.2" x2="149.9" y2="28.4"/>
		<line class="st0" x1="63.1" y1="178.8" x2="136.8" y2="20.8"/>
		<line class="st0" x1="77.4" y1="184" x2="122.5" y2="15.6"/>
		<line class="st0" x1="92.3" y1="186.6" x2="107.5" y2="13"/>
		<line class="st0" x1="107.5" y1="186.6" x2="92.3" y2="13"/>
		<line class="st0" x1="122.5" y1="184" x2="77.4" y2="15.6"/>
		<line class="st0" x1="136.8" y1="178.8" x2="63.1" y2="20.8"/>
		<line class="st0" x1="149.9" y1="171.2" x2="49.9" y2="28.4"/>
		<line class="st0" x1="161.5" y1="161.4" x2="38.3" y2="38.2"/>
		<line class="st0" x1="171.3" y1="149.8" x2="28.5" y2="49.8"/>
		<line class="st0" x1="178.9" y1="136.6" x2="21" y2="63"/>
		<line class="st0" x1="184.1" y1="122.4" x2="15.8" y2="77.3"/>
		<line class="st0" x1="186.7" y1="107.4" x2="13.1" y2="92.2"/>
	</g>
	<circle class="st1" cx="99.9" cy="99.8" r="94"/>
	<circle class="st2" cx="99.9" cy="99.8" r="73.2"/>
</g>
<g>
	<path d="M60.1,86.2h5.2v3.7h-5.2v10.3l4.5-1.4l0.5,3.6l-5,1.7v15c0,2.2-0.5,3.2-1.8,3.9c-1.3,0.6-3.3,0.8-6.6,0.7
		c-0.2-1-0.6-2.6-1.2-3.7c2.3,0.1,4.4,0.1,5,0.1c0.6,0,0.9-0.2,0.9-1v-13.7c-2.2,0.7-4.4,1.4-6.3,2l-1-3.8c2-0.6,4.6-1.3,7.3-2.2
		V89.9h-6.7v-3.7h6.7V75.6h3.7V86.2z M97.3,81v3.4H66.4V81h13.1c-0.6-1.5-1.3-3.2-2.1-4.6l3.5-1c1,1.6,2,3.9,2.5,5.6H97.3z
		 M95.8,120.3c0,1.7-0.3,2.6-1.5,3.1c-1.2,0.6-3,0.6-5.9,0.6c-0.2-0.9-0.6-2.2-1.1-3.1c2,0.1,3.7,0.1,4.2,0c0.5,0,0.7-0.2,0.7-0.7
		v-15.9H70.5V124h-3.6v-23h28.9V120.3z M92.9,98.1H70V87.4h22.9V98.1z M89.2,90.3H73.5v4.8h15.7V90.3z M88.5,118.1H74.1v-10.7h14.4
		V118.1z M85.4,110.3h-8.3v5h8.3V110.3z"/>
	<path d="M110.9,83.7c-1.6,2.7-3.5,5.1-5.3,7.1c-0.6-0.7-2-2.1-2.9-2.8c3.4-3.1,6.4-8,8.2-12.8l3.7,1c-0.5,1.3-1.2,2.7-1.8,4h13.8
		v3.4H110.9z M130.7,107.6c4,6.5,10.9,11.1,19.8,13c-0.9,0.8-2,2.3-2.5,3.4c-9.6-2.5-16.9-7.9-21.1-16c-3,7-8.7,12.7-21.4,15.8
		c-0.4-1-1.4-2.5-2.1-3.3c11.3-2.5,16.6-7.3,19.2-13h-19.1v-3.6h20.4c0.6-2.2,1-4.5,1.3-6.8c-5.8,0.5-11.8,0.9-17.3,1.1
		c-0.1-1-0.5-2.5-0.9-3.3c11.7-0.5,25.6-1.7,34.4-3.6c-1.2-1.5-3.6-4-5.5-5.7l2.5-2.1c1.9,1.6,4.3,4,5.5,5.5l-2.5,2.3
		c1-0.2,1.9-0.4,2.6-0.6l2.3,3.2c-4.6,1.2-10.5,2.1-16.9,2.8c-0.3,2.5-0.7,4.9-1.4,7.2h22.3v3.6H130.7z M115.8,83.9
		c2,2,4.7,4.7,6.1,6.4l-2.6,2.3c-1.3-1.7-4-4.6-6-6.7L115.8,83.9z M150.4,83.7h-17.4c-1.3,2.5-2.8,4.9-4.3,6.7
		c-0.6-0.6-2.1-1.8-3-2.3c3-3.1,5.3-7.9,6.6-12.8l3.7,0.8c-0.4,1.4-0.9,2.9-1.5,4.2h16V83.7z"/>
</g>
</svg>
