<?xml version="1.0" encoding="utf-8"?>
<!-- Generator: Adobe Illustrator 23.0.1, SVG Export Plug-In . SVG Version: 6.00 Build 0)  -->
<svg version="1.1" id="圖層_1" xmlns="http://www.w3.org/2000/svg" xmlns:xlink="http://www.w3.org/1999/xlink" x="0px" y="0px"
	 viewBox="0 0 200 200" style="enable-background:new 0 0 200 200;" xml:space="preserve">
<style type="text/css">
	.st0{fill:none;stroke:#000000;stroke-miterlimit:10;}
	.st1{fill:none;stroke:#000000;stroke-width:3;stroke-miterlimit:10;}
	.st2{fill:#FFFFFF;}
</style>
<g>
	<g>
		<line class="st0" x1="13.1" y1="99.8" x2="187.4" y2="99.8"/>
		<line class="st0" x1="14.4" y1="114.9" x2="186.1" y2="84.7"/>
		<line class="st0" x1="18.4" y1="129.6" x2="182.1" y2="70"/>
		<line class="st0" x1="24.8" y1="143.4" x2="175.7" y2="56.2"/>
		<line class="st0" x1="33.5" y1="155.8" x2="167" y2="43.8"/>
		<line class="st0" x1="44.2" y1="166.6" x2="156.3" y2="33.1"/>
		<line class="st0" x1="56.7" y1="175.3" x2="143.8" y2="24.3"/>
		<line class="st0" x1="70.4" y1="181.7" x2="130.1" y2="17.9"/>
		<line class="st0" x1="85.1" y1="185.6" x2="115.4" y2="14"/>
		<line class="st0" x1="100.3" y1="187" x2="100.3" y2="12.7"/>
		<line class="st0" x1="115.4" y1="185.6" x2="85.1" y2="14"/>
		<line class="st0" x1="130.1" y1="181.7" x2="70.4" y2="17.9"/>
		<line class="st0" x1="143.8" y1="175.3" x2="56.7" y2="24.3"/>
		<line class="st0" x1="156.3" y1="166.6" x2="44.2" y2="33.1"/>
		<line class="st0" x1="167" y1="155.8" x2="33.5" y2="43.8"/>
		<line class="st0" x1="175.7" y1="143.4" x2="24.8" y2="56.2"/>
		<line class="st0" x1="182.1" y1="129.6" x2="18.4" y2="70"/>
		<line class="st0" x1="186.1" y1="114.9" x2="14.4" y2="84.7"/>
	</g>
	<g>
		<line class="st0" x1="13.4" y1="107.4" x2="187.1" y2="92.2"/>
		<line class="st0" x1="16.1" y1="122.4" x2="184.4" y2="77.3"/>
		<line class="st0" x1="21.3" y1="136.6" x2="179.2" y2="63"/>
		<line class="st0" x1="28.9" y1="149.8" x2="171.6" y2="49.8"/>
		<line class="st0" x1="38.6" y1="161.4" x2="161.9" y2="38.2"/>
		<line class="st0" x1="50.3" y1="171.2" x2="150.2" y2="28.4"/>
		<line class="st0" x1="63.4" y1="178.8" x2="137.1" y2="20.8"/>
		<line class="st0" x1="77.7" y1="184" x2="122.8" y2="15.6"/>
		<line class="st0" x1="92.7" y1="186.6" x2="107.8" y2="13"/>
		<line class="st0" x1="107.8" y1="186.6" x2="92.7" y2="13"/>
		<line class="st0" x1="122.8" y1="184" x2="77.7" y2="15.6"/>
		<line class="st0" x1="137.1" y1="178.8" x2="63.4" y2="20.8"/>
		<line class="st0" x1="150.2" y1="171.2" x2="50.3" y2="28.4"/>
		<line class="st0" x1="161.9" y1="161.4" x2="38.6" y2="38.2"/>
		<line class="st0" x1="171.6" y1="149.8" x2="28.9" y2="49.8"/>
		<line class="st0" x1="179.2" y1="136.6" x2="21.3" y2="63"/>
		<line class="st0" x1="184.4" y1="122.4" x2="16.1" y2="77.3"/>
		<line class="st0" x1="187.1" y1="107.4" x2="13.4" y2="92.2"/>
	</g>
	<circle class="st1" cx="100.3" cy="99.8" r="94"/>
	<circle class="st2" cx="100.3" cy="99.8" r="73.2"/>
</g>
<g>
	<path d="M83.4,90.6h13.3v3.8H66.1v-3.8h12.9v-4.4h-9.3v-3.7h9.3v-4.1h-7.6v-3.1c-1.5,1-3.1,1.9-4.6,2.7c-0.6-1-1.7-2.5-2.6-3.5
		c4-1.6,8.5-4.6,11.8-7.8h-4.8v-4h12.3c3.1,4.5,8.9,9.1,15,11.3c-0.9,0.9-2.2,2.7-2.9,3.9c-1.5-0.7-3.1-1.6-4.5-2.6v3h-7.7v4.1h9.4
		v3.7h-9.4V90.6z M89.9,74.7c-3.3-2.3-6.3-5.1-8.6-7.9c-2.4,2.8-5.6,5.6-8.9,7.9H89.9z"/>
	<path d="M133.8,74.8c-1.9,2.4-4.1,5.1-5.9,6.9c1.5,3.1,3.7,5.4,6.7,7.6c-1,0.7-2.1,2.1-2.6,3.2c-3-2.3-5.1-4.8-6.8-7.8v5.7
		c0,2.2-0.4,3.3-1.7,4c-1.2,0.7-3.1,0.9-5.7,0.9c-0.2-1.2-0.9-3-1.4-4.1c1.7,0.1,3.4,0.1,4,0c0.5,0,0.8-0.2,0.8-0.7v-5.9
		c-2.5,2.4-5.1,4.9-7.3,6.9l-2-3C108,89.8,104.1,91,101,92l-0.9-4.1c1.3-0.3,2.7-0.7,4.3-1.2V78h-3.6v-3.9h3.6v-6.3h-3.8v-4h11.4v4
		h-3.6v6.3h3.1V78h-3.1v7.5l3.7-1.1l0.4,2.3c2.3-1.7,5.5-4.2,8.5-6.7v-8.6h-8.3v-3.9h8.3v-5.8h4.1v5.8h4.9c-0.9-1.1-2.5-2.4-3.8-3.4
		l2.3-2.2c1.5,0.9,3.4,2.5,4.3,3.6l-2.1,2h3.1v3.9h-8.8v1.4c0.4,2,0.8,3.7,1.3,5.3c1.3-1.7,2.7-3.7,3.6-5.3L133.8,74.8z M116.3,73
		c1.4,2,2.9,4.5,3.5,6.3l-3.5,1.6c-0.5-1.7-1.9-4.5-3.3-6.5L116.3,73z"/>
	<path d="M92.5,134.1c1.2,0,1.5-0.6,1.6-4.6c0.9,0.7,2.7,1.4,3.9,1.7c-0.5,5.3-1.6,6.8-5.1,6.8H88c-4.3,0-5.4-1.3-5.4-5.1v-6.7H82
		c-1.9,5.3-5.8,9.6-14.9,12.2c-0.5-1.1-1.5-2.7-2.4-3.6c7.4-1.9,10.8-4.9,12.6-8.6h-9v-8c-0.4,0.3-0.8,0.6-1.2,0.9
		c-0.6-1-2-2.6-3-3.2c4.8-3.2,8.2-7.4,10.1-11l4.6,0.9c-0.3,0.5-0.6,1.1-1,1.7H85l0.7-0.2l3,1.9c-0.8,1.5-2.1,3.3-3.4,4.9h9.7v12.2
		h-8v6.6c0,1.2,0.2,1.4,1.6,1.4H92.5z M78.5,122.3c0.3-1.5,0.5-3,0.6-4.6h-6.6v4.6H78.5z M75.5,110.8c-0.8,1.1-1.7,2.1-2.6,3.1h7.5
		c0.8-0.9,1.6-2,2.3-3.1H75.5z M83.7,117.7c-0.1,1.6-0.4,3.1-0.6,4.6h7.5v-4.6H83.7z"/>
	<path d="M110.4,122.3c-0.5,3-1.4,6.2-2.6,8.9c0.5,0.4,1.2,0.8,2.1,1.4c2.4,1.5,5.8,1.7,10,1.7c4.1,0,10.6-0.4,14.6-0.9
		c-0.5,1.2-1.2,3.2-1.3,4.4c-3,0.2-9.3,0.4-13.5,0.4c-4.8,0-7.8-0.4-10.4-1.9c-1.5-0.8-2.8-2-3.5-2c-0.8,0-2.1,2.4-3,4.5l-2.9-4.1
		c1.3-1.5,2.7-2.8,3.9-3.5c0.9-1.8,1.5-4.1,2-6.2h-4.6c0.9-2.1,1.8-5,2.7-7.8h-3.3v-3.8h8.5c-0.8,2.6-1.7,5.4-2.5,7.9h0.6l0.6-0.1
		L110.4,122.3z M104.5,112.3c-0.4-1.7-1.4-4.3-2-6.2l3.8-1.2c0.7,1.9,1.6,4.4,2.1,6L104.5,112.3z M113.3,113.2h-3V106h22.9v7.2h-3.7
		v1.3h-5.5v1.3h7.5v10.5h-7.5v1.3h9.3v3.1h-9.3v2.4h-4.2v-2.4h-9.1v-3.1h9.1v-1.3h-7.5v-10.5h7.5v-1.3h-6.4V113.2z M114.2,109.2v2.4
		h5.5v-1.4h4.2v1.4h5.2v-2.4H114.2z M115.9,119.9h3.8v-1.4h-3.8V119.9z M119.7,123.8v-1.4h-3.8v1.4H119.7z M123.9,118.5v1.4h3.7
		v-1.4H123.9z M127.5,122.4h-3.7v1.4h3.7V122.4z"/>
</g>
</svg>
