<?xml version="1.0" encoding="utf-8"?>
<!-- Generator: Adobe Illustrator 23.0.1, SVG Export Plug-In . SVG Version: 6.00 Build 0)  -->
<svg version="1.1" id="圖層_1" xmlns="http://www.w3.org/2000/svg" xmlns:xlink="http://www.w3.org/1999/xlink" x="0px" y="0px"
	 viewBox="0 0 200 200" style="enable-background:new 0 0 200 200;" xml:space="preserve">
<style type="text/css">
	.st0{fill:#FFFFFF;stroke:#000000;stroke-width:7;stroke-miterlimit:10;}
	.st1{fill:none;stroke:#FFFFFF;stroke-miterlimit:10;}
</style>
<polygon class="st0" points="169.2,140.1 169.2,60.2 100,20.3 30.8,60.2 30.8,140.1 100,180.1 "/>
<polygon class="st1" points="169.2,140.1 169.2,60.2 100,20.3 30.8,60.2 30.8,140.1 100,180.1 "/>
<g>
	<path d="M87.5,66.4c-0.9,0-1.1,0-2.2,0.1v-1.7c0.8,0.1,1.5,0.1,2.2,0.1h5.4v0c-0.4-1.3-0.7-2.1-1.2-3.2l-0.4-0.6l1.2-0.8l0.6,0.4
		c1.3,0.6,2.3,1.1,4,2l1.2,0.5L94.5,65h8.2c0.5-1,1.1-2.6,1.4-3.7l0.2-0.8l5.8,1.3l-1,0.6c-1.1,0.8-2.4,1.7-3.8,2.4l-0.3,0.2h7.6
		c0.8,0,1.3,0,2.2-0.1v1.7c-0.9-0.1-1.3-0.1-2.2-0.1h-10.1v2.9h8.4c0.8,0,1.3,0,2.2-0.1v1.7c-0.9-0.1-1.3-0.1-2.2-0.1h-8.4v3h11.2
		c0.8,0,1.3,0,2.2-0.1v1.7c-0.9-0.1-1.3-0.1-2.2-0.1h-11.2v4.5h3.1c0.5-1.1,0.9-2,1.1-3l0.3-1.2l5.6,1.6l-1.6,0.9
		c-0.8,0.5-1.7,1-3.1,1.7h6.2c1,0,1.5,0,2.2-0.1v1.6c-0.4,0-0.5,0-0.7-0.1h-0.5h-0.6h-0.4H86.2h-1.3c-0.2,0-0.5,0-0.9,0.1v-1.6
		c0.8,0.1,1.1,0.1,2.2,0.1h4.2c-0.5-1.3-0.8-1.9-1.2-2.7l-0.5-0.7l1.1-0.8l0.6,0.4c1,0.4,2.3,1,3.6,1.8l1.2,0.5l-2.7,1.5h5v-4.5
		H86.5c-0.9,0-1.1,0-2.2,0.1v-1.7c0.8,0.1,1.5,0.1,2.2,0.1h10.9v-3h-8.1c-0.9,0-1.1,0-2.2,0.1v-1.7c0.8,0.1,1.5,0.1,2.2,0.1h8.1
		v-2.9H87.5z M112.5,89.9c0,1.3,0,1.8,0.2,2.6c-0.8-0.1-1.3-0.1-2.1-0.1H110H90c-1.3,0-1.7,0-2.7,0.1c0.2-1,0.2-1.2,0.2-2.6v-3.6
		v-0.5c0-0.8,0-1.3-0.2-2.2c0.7,0.1,1.4,0.1,2.7,0.1h20c1.3,0,1.8,0,2.7-0.1c-0.1,0.8-0.2,1.3-0.2,2.6V89.9z M107.4,85.2H92.6V91
		h14.7V85.2z"/>
	<path d="M109.1,108.9c1.3,0,1.8,0,2.7-0.1c-0.1,0.8-0.2,1.4-0.2,2.7v8.2c0,1.3,0,1.8,0.2,2.7c-0.8-0.1-1.3-0.1-2.1-0.1h-0.6h-9.3
		c1.4,2.4,3.2,4.4,5.3,5.7c1.6-1.2,3.2-2.8,4.5-4.4l0.7-1.2l5.1,3.5l-1.5,0.5c-2.4,1.1-4.6,1.8-7.1,2.6c2.2,1.1,4.8,1.9,8.3,2.5
		l1.8,0.1l-3.3,5.1l-1.5-0.6c-8-2.8-11.8-6.6-13.8-13.9h-4.5v8.7c1.8-0.1,4.7-0.3,6.6-0.4l1.4-0.2l0.3,1.4l-1.3,0.3
		c-4.6,1.7-8.9,3.1-13.5,4.3l-1.1,0.5l-1.8-5.8l1.5,0.1h1.7l0.6,0h0.5v-19.7c0-1.3,0-1.7-0.2-2.7c0.7,0.1,1.4,0.1,2.7,0.1h6v-2.6
		c0-0.7,0-0.8-0.2-2.2h5.7c-0.1,1.1-0.2,1.5-0.2,2.2v2.6H109.1z M93.7,110.3v4.5h12.9v-4.5H93.7z M93.7,120.9h12.9v-4.6H93.7V120.9z
		"/>
</g>
</svg>
