<?xml version="1.0" encoding="utf-8"?>
<!-- Generator: Adobe Illustrator 23.0.1, SVG Export Plug-In . SVG Version: 6.00 Build 0)  -->
<svg version="1.1" id="圖層_1" xmlns="http://www.w3.org/2000/svg" xmlns:xlink="http://www.w3.org/1999/xlink" x="0px" y="0px"
	 viewBox="0 0 200 200" style="enable-background:new 0 0 200 200;" xml:space="preserve">
<style type="text/css">
	.st0{fill:none;stroke:#000000;stroke-miterlimit:10;}
	.st1{fill:none;stroke:#000000;stroke-width:3;stroke-miterlimit:10;}
	.st2{fill:#FFFFFF;}
</style>
<g>
	<g>
		<line class="st0" x1="12.8" y1="100.3" x2="187.1" y2="100.3"/>
		<line class="st0" x1="14.1" y1="115.4" x2="185.7" y2="85.1"/>
		<line class="st0" x1="18" y1="130.1" x2="181.8" y2="70.5"/>
		<line class="st0" x1="24.5" y1="143.8" x2="175.4" y2="56.7"/>
		<line class="st0" x1="33.2" y1="156.3" x2="166.7" y2="44.2"/>
		<line class="st0" x1="43.9" y1="167" x2="155.9" y2="33.5"/>
		<line class="st0" x1="56.4" y1="175.7" x2="143.5" y2="24.8"/>
		<line class="st0" x1="70.1" y1="182.1" x2="129.7" y2="18.4"/>
		<line class="st0" x1="84.8" y1="186.1" x2="115.1" y2="14.4"/>
		<line class="st0" x1="99.9" y1="187.4" x2="99.9" y2="13.1"/>
		<line class="st0" x1="115.1" y1="186.1" x2="84.8" y2="14.4"/>
		<line class="st0" x1="129.7" y1="182.1" x2="70.1" y2="18.4"/>
		<line class="st0" x1="143.5" y1="175.7" x2="56.4" y2="24.8"/>
		<line class="st0" x1="155.9" y1="167" x2="43.9" y2="33.5"/>
		<line class="st0" x1="166.7" y1="156.3" x2="33.2" y2="44.2"/>
		<line class="st0" x1="175.4" y1="143.8" x2="24.5" y2="56.7"/>
		<line class="st0" x1="181.8" y1="130.1" x2="18" y2="70.5"/>
		<line class="st0" x1="185.7" y1="115.4" x2="14.1" y2="85.1"/>
	</g>
	<g>
		<line class="st0" x1="13.1" y1="107.8" x2="186.7" y2="92.7"/>
		<line class="st0" x1="15.8" y1="122.8" x2="184.1" y2="77.7"/>
		<line class="st0" x1="21" y1="137.1" x2="178.9" y2="63.4"/>
		<line class="st0" x1="28.5" y1="150.2" x2="171.3" y2="50.3"/>
		<line class="st0" x1="38.3" y1="161.9" x2="161.5" y2="38.6"/>
		<line class="st0" x1="49.9" y1="171.6" x2="149.9" y2="28.9"/>
		<line class="st0" x1="63.1" y1="179.2" x2="136.8" y2="21.3"/>
		<line class="st0" x1="77.4" y1="184.4" x2="122.5" y2="16.1"/>
		<line class="st0" x1="92.3" y1="187.1" x2="107.5" y2="13.4"/>
		<line class="st0" x1="107.5" y1="187.1" x2="92.3" y2="13.4"/>
		<line class="st0" x1="122.5" y1="184.4" x2="77.4" y2="16.1"/>
		<line class="st0" x1="136.8" y1="179.2" x2="63.1" y2="21.3"/>
		<line class="st0" x1="149.9" y1="171.6" x2="49.9" y2="28.9"/>
		<line class="st0" x1="161.5" y1="161.9" x2="38.3" y2="38.6"/>
		<line class="st0" x1="171.3" y1="150.2" x2="28.5" y2="50.3"/>
		<line class="st0" x1="178.9" y1="137.1" x2="21" y2="63.4"/>
		<line class="st0" x1="184.1" y1="122.8" x2="15.8" y2="77.7"/>
		<line class="st0" x1="186.7" y1="107.8" x2="13.1" y2="92.7"/>
	</g>
	<circle class="st1" cx="99.9" cy="100.3" r="94"/>
	<circle class="st2" cx="99.9" cy="100.3" r="73.2"/>
</g>
<g>
	<path d="M52.2,80.5c0-2,1.3-3.2,3.2-3.2h10.4c1.8,0,3,1.3,3,2.8c0,2.1-4.6,13-4.6,13.7c0,0.5,0.3,0.9,0.8,1.6c0.6,0.8,4,5.5,4,11.5
		c0,4.4-2.3,6.9-6.9,6.9c-3.4,0-4.6-0.7-4.6-2.4c0-1.4,0.8-2.2,2-2.2c1,0,1.8,0.2,2.7,0.2c1.7,0,2.4-0.5,2.4-2.8
		c0-1.5-0.1-4.5-3.6-9.7c-0.7-1-1.2-1.9-1.2-3.2c0-0.7,0.2-1.5,0.6-2.5c1.3-3,3.4-8.5,3.4-9.2c0-0.3-0.1-0.5-0.6-0.5h-5.8
		c-0.6,0-0.8,0.3-0.8,0.8v40.4c0,1.5-0.9,2.2-2.2,2.2c-1.3,0-2.2-0.7-2.2-2.2V80.5z M75.2,100.4v17.6c2.4-1,4.7-2,6.8-3
		c0.6-0.3,1-0.5,1.6-0.5c1.2,0,2.2,1.1,2.2,2.3c0,1.1-0.8,1.7-1.5,2.1c-3,1.5-12,5.4-13.5,5.4c-1.3,0-2.3-1.1-2.3-2.3
		c0-1.2,0.8-1.9,2.4-2.4V80.4c0-1.9,1.3-3.2,3.2-3.2h18.6c1.9,0,3.2,1.3,3.2,3.2v16.7c0,1.9-1.3,3.2-3.2,3.2h-7.8
		c0.7,2.9,1.7,5.3,3.2,8.1c1.5-1,3.6-2.9,5.5-4.6c1.4-1.3,1.9-1.5,2.6-1.5c1.1,0,2.2,1.1,2.2,2.1c0,0.8,0,1.7-8,7.6
		c1.7,2.4,4.9,5.4,7.3,6.9c1.6,1,2,1.5,2,2.5c0,1.3-1.1,2.4-2.3,2.4c-2.3,0-9.1-6.5-12.3-12c-1.4-2.3-3.1-6-4.8-11.6H75.2z
		 M76.4,81.2c-1,0-1.2,0.2-1.2,1.2v4.2h16.5v-4.2c0-1-0.2-1.2-1.2-1.2H76.4z M75.2,90.6v5.9h15.3c1,0,1.2-0.2,1.2-1.2v-4.7H75.2z"/>
	<path d="M130.6,95.7v7.9h12.1c1.5,0,2.2,0.8,2.2,2.2c0,1.3-0.6,2.1-2.2,2.1h-12.1v10.3c1.8,0.3,5.5,0.6,9.9,0.6
		c1.3,0,6.8-0.1,7.9-0.1c1.7,0,3,0.3,3,2.2c0,1.1-0.5,2-1.3,2.2c-0.7,0.2-1.9,0.3-6.1,0.3c-18.7,0-22.8-2.5-28.6-9.9
		c-1.1,2.3-5.9,10.4-8.8,10.4c-1.1,0-2.4-0.9-2.4-2.4c0-0.8,0.6-1.5,1.1-2c6.6-6.7,8-12.6,9.2-18.2c0.3-1.3,0.9-1.9,2.2-1.9
		c1.5,0,2.6,0.6,2.6,2c0,1.6-0.8,4.6-1.6,7c1.6,3.4,5.5,7.1,8.6,8.5V95.7h-12.7c-1.5,0-2.2-0.8-2.2-2.2s0.6-2.2,2.2-2.2h28.8
		c1.5,0,2.2,0.8,2.2,2.2s-0.6,2.2-2.2,2.2H130.6z M130,81.5h16.4c2.6,0,3.9,1.3,3.9,4v6.5c0,1.5-0.9,2.2-2.2,2.2
		c-1.3,0-2.2-0.6-2.2-2.2v-5c0-1-0.2-1.2-1.2-1.2h-33.8c-1,0-1.2,0.2-1.2,1.2v5.2c0,1.6-0.9,2.3-2.2,2.3c-1.4,0-2.3-0.7-2.3-2.3
		v-6.7c0-2.6,1.3-4,3.9-4h16.5V78c0-1.6,0.9-2.2,2.2-2.2c1.3,0,2.2,0.6,2.2,2.2V81.5z"/>
</g>
</svg>
