<?xml version="1.0" encoding="utf-8"?>
<!-- Generator: Adobe Illustrator 23.0.1, SVG Export Plug-In . SVG Version: 6.00 Build 0)  -->
<svg version="1.1" id="圖層_1" xmlns="http://www.w3.org/2000/svg" xmlns:xlink="http://www.w3.org/1999/xlink" x="0px" y="0px"
	 viewBox="0 0 200 200" style="enable-background:new 0 0 200 200;" xml:space="preserve">
<style type="text/css">
	.st0{fill:#fff;stroke:#000;stroke-width:7;stroke-miterlimit:10;}
	.st1{fill:none;stroke:#fff;stroke-miterlimit:10;}
	.st2{fill:red}
</style>
<polygon class="st0" points="168.6,140.1 168.6,60.2 99.4,20.3 30.2,60.2 30.2,140.1 99.4,180.1 "/>
<polygon class="st1" points="168.6,140.1 168.6,60.2 99.4,20.3 30.2,60.2 30.2,140.1 99.4,180.1 "/>
<g>
	<path d="M94.1,81.1h3.6c0.8,0,1.3,0,2.2-0.1v1.7c-0.9-0.1-1.3-0.1-2.2-0.1h-3.6v1.6c1.3,0.5,3.1,1.3,4.7,2.1l1.4,0.6l-2.8,3.6
		l-0.8-1.3c-0.6-1.1-1.5-2.4-2.5-3.6v7.6c0,0.6,0,1.1,0.2,2.2h-4.8l0-0.4c0.1-0.8,0.1-1.2,0.1-1.8v-5.7c-1.6,2-3.9,4.1-5.8,5.4
		l-0.7,0.7l-0.9-1l0.8-0.6c1.7-1.9,3.7-5.8,4.9-9.3h-2.2c-0.9,0-1.1,0-2.2,0.1V81c0.8,0.1,1.5,0.1,2.2,0.1h3.9V77h-4.2
		c-0.9,0-1.1,0-2.2,0.1v-1.7c0.8,0.1,1.5,0.1,2.2,0.1H87l-0.1-0.6l0-0.4c-0.1-1.3-0.4-2.9-0.5-3.7L86,69.8l1.1-0.5l0.5,0.8
		c1.3,1.4,2.1,2.3,2.7,3.2l0.8,0.9l-3.2,1.5H93c0.5-1.5,1.1-3.6,1.3-4.9l0.2-1.3l4.5,1.6l-1.2,1.3l-0.2,0.3
		c-0.7,0.9-2.1,2.2-3.1,3.1H98c0.8,0,1.3,0,2.2-0.1v1.7C99.3,77,98.8,77,98,77h-3.9V81.1z M89.6,65.1c0-0.7,0-0.8-0.2-2.2h4.9
		c-0.1,1.1-0.2,1.5-0.2,2.2v2.6h3.3c0.8,0,1.3,0,2.2-0.1v1.7c-0.9-0.1-1.3-0.1-2.2-0.1H86.1c-0.9,0-1.1,0-2.2,0.1v-1.7
		c0.8,0.1,1.5,0.1,2.2,0.1h3.5V65.1z M105.8,76.3c0,8.3-1.6,13.2-5.9,18.1l-0.6,0.9L98,94.5l0.7-0.9c2-4.2,2.6-8.5,2.6-17.3v-6.9
		v-0.6c0-1.3,0-1.8-0.1-2.7c0.5,0,0.9,0.1,1.4,0.1c2.8,0,6.2-1.1,9-2.8l1-0.8l3.5,4.2l-1.4,0.2c-2.4,0.4-5.4,0.6-9,0.6v7.3h8.4
		c0.7,0,1.2,0,2-0.1v1.7c-0.9-0.1-1.3-0.1-2-0.1H113v16.8c0,0.6,0,1.1,0.2,2.2h-4.8l0-0.4c0.1-0.8,0.1-1.2,0.1-1.8V76.3H105.8z"/>
	<path d="M92.3,136.4c0,0.6,0,1.1,0.2,2.2h-5l0-0.4c0.1-0.8,0.1-1.2,0.1-1.8v-14.4c-1,1.3-1.9,2.3-3.2,3.6l-0.7,0.9l-0.9-0.8
		l0.6-0.8c2.7-4,5.5-11.3,6.7-17.3l0.3-1.7l5.4,1.7l-0.9,1.7c-0.8,1.9-1.7,3.9-2.7,5.8V136.4z M101.2,114c-1.6,3.2-3.5,5.9-5.8,8.4
		l-0.7,0.9l-1.1-0.8l0.7-0.9c2-4,3.5-9.5,4-14.3l0.1-1.5l5.6,1.4l-0.7,1.5c-0.5,1.7-0.8,2.4-1.5,3.9h11.6c0.8,0,1.3,0,2.2-0.1v1.7
		c-0.9-0.1-1.3-0.1-2.2-0.1h-6.9v5.9h5c0.8,0,1.3,0,2.2-0.1v1.7c-0.9-0.1-1.3-0.1-2.2-0.1h-5v5.8h5.4c0.8,0,1.3,0,2.2-0.1v1.7
		c-0.9-0.1-1.3-0.1-2.2-0.1h-5.4v7.7c0,0.6,0,1.1,0.2,2.2h-5.3l0-0.4c0.1-0.8,0.1-1.2,0.1-1.8V114H101.2z"/>
</g>
</svg>
