<?xml version="1.0" encoding="utf-8"?>
<!-- Generator: Adobe Illustrator 23.0.1, SVG Export Plug-In . SVG Version: 6.00 Build 0)  -->
<svg version="1.1" id="圖層_1" xmlns="http://www.w3.org/2000/svg" xmlns:xlink="http://www.w3.org/1999/xlink" x="0px" y="0px"
	 viewBox="0 0 200 200" style="enable-background:new 0 0 200 200;" xml:space="preserve">
<style type="text/css">
	.st0{fill:#FFFFFF;stroke:#000000;stroke-width:7;stroke-miterlimit:10;}
	.st1{fill:none;stroke:#FFFFFF;stroke-miterlimit:10;}
</style>
<polygon class="st0" points="169.4,140.1 169.4,60.2 100.2,20.3 31,60.2 31,140.1 100.2,180.1 "/>
<polygon class="st1" points="169.4,140.1 169.4,60.2 100.2,20.3 31,60.2 31,140.1 100.2,180.1 "/>
<g>
	<path d="M92,70.6c0.8,0.4,1.5,0.8,2.5,1.3l1,0.4l-3.1,2.9h2.8c2.2,0,3,0,4.2-0.1v1.1c-1.2,2.4-2.4,4.5-4.1,6.8l-0.5,0.8l-1.3-0.6
		l0.3-0.8l0.1-0.6c0.4-2.1,0.7-4.1,0.7-5.1h-1.7V92c0,1.3-0.8,2.2-2,2.2c-1.2,0-3-0.4-5.4-1.3l-1.4-0.2L84.1,91
		c1,0.1,2.6,0.3,3.5,0.3c0.7,0,0.9-0.2,0.9-0.8V76.7h-2.4c-0.9,0-1.1,0-2.2,0.1v-1.7c0.8,0.1,1.5,0.1,2.2,0.1h5.3l-0.3-0.4
		c-1.9-2.2-3.2-3.5-4.8-4.9l-0.9-0.7l1-1.2l0.9,0.5c0.9,0.4,2.2,0.9,3,1.3c0.6-1.5,1.1-3.1,1.4-4.5h-5.1c-0.9,0-1.1,0-2.2,0.1v-1.7
		c0.8,0.1,1.5,0.1,2.2,0.1h7.2c1.2,0,1.4,0,3.1,0l0.8,0V65c-1.6,1.9-3.6,3.7-6,5.5L92,70.6z M107.4,90.7l-1.6,0.9
		c-1.4,1-4.5,2.2-7,2.8l-1,0.4l-0.8-1.2l1.2-0.5c1.8-1.1,3.8-2.9,4.8-4.2l0.8-1.2L107.4,90.7z M115.3,84.9c0,1.3,0,1.7,0.2,2.7
		c-0.8-0.1-1.3-0.1-2.1-0.1h-0.6h-10h-0.5c-1,0-1.4,0-2.2,0.1c0.1-1,0.1-1.2,0.1-2.7V72.2c0-1.3,0-1.8-0.1-2.7
		c0.8,0.1,1.3,0.1,2.7,0.1h2.3c0.3-1.4,0.4-2.3,0.5-4.2h-4.4c-0.9,0-1.1,0-2.2,0.1v-1.7c0.8,0.1,1.5,0.1,2.2,0.1h13.1
		c0.8,0,1.3,0,2.2-0.1v1.7c-0.9-0.1-1.3-0.1-2.2-0.1h-3.6c-1.3,1.7-2.6,3.1-3.8,4.2h5.9c1.3,0,1.8,0,2.7-0.1
		c-0.1,0.8-0.2,1.4-0.2,2.7V84.9z M104.5,71v3.9h6.5V71H104.5z M111,76.4h-6.5v3.9h6.5V76.4z M104.5,81.7v4.4h6.5v-4.4H104.5z
		 M110.5,88.3c2.4,0.7,4.2,1.3,5.5,1.8l1.3,0.4l-3.1,4.1l-0.8-1.1c-0.6-0.9-1.6-1.8-3.3-3.2l-0.5-0.4l-0.9-0.6l0.9-1.3L110.5,88.3z"
		/>
	<path d="M98.2,117.7h-5.4c-0.9,0-1.1,0-2.2,0.1v-1.7c0.8,0.1,1.5,0.1,2.2,0.1h14.8c0.8,0,1.3,0,2.2-0.1v1.7
		c-0.9-0.1-1.3-0.1-2.2-0.1h-4.4v6.8h7.2c0.8,0,1.3,0,2.2-0.1v1.7c-0.9-0.1-1.3-0.1-2.2-0.1h-7.2v6.9c1.2,0.1,2.1,0.1,3,0.1
		c3.5,0,8-0.4,10.2-0.8l-1.3,4.9c-0.7,0-2.1,0.1-3.5,0.1c-6.3,0-10.9-0.6-13.5-1.7c-2.7-1.2-4.9-3.2-6.3-5.5
		c-1.5,2.8-3.6,5.2-6.2,7.1l-0.8,0.9l-1.2-1.1l0.9-0.7c2.3-2.8,4-7.6,4.7-12.8l0.1-1.9l5.4,1.3l-0.5,1.4c-0.5,1.8-0.9,2.8-1.5,4.2
		c1.3,1.7,3,2.8,5.4,3.7V117.7z M89.7,111.4v3.5c0,0.6,0,1.1,0.2,2.2h-5.4l0-0.4c0.1-0.8,0.1-1.2,0.1-1.8v-2.1c0-1.6,0-1.8-0.2-3
		c0.8,0.1,1.4,0.1,2.7,0.1h10.3v-2.7c0-0.7,0-0.8-0.2-2.2h5.6c-0.1,1.1-0.2,1.5-0.2,2.2v2.7h10.4c1.3,0,1.8,0,2.7-0.1
		c-0.1,1-0.2,1.5-0.2,3v2.1c0,0.6,0,1.1,0.2,2.2h-5.4l0-0.4c0.1-0.8,0.1-1.2,0.1-1.8v-3.5H89.7z"/>
</g>
</svg>
