<?xml version="1.0" encoding="utf-8"?>
<!-- Generator: Adobe Illustrator 23.0.1, SVG Export Plug-In . SVG Version: 6.00 Build 0)  -->
<svg version="1.1" id="圖層_1" xmlns="http://www.w3.org/2000/svg" xmlns:xlink="http://www.w3.org/1999/xlink" x="0px" y="0px"
	 viewBox="0 0 200 200" style="enable-background:new 0 0 200 200;" xml:space="preserve">
<style type="text/css">
	.st0{fill:#fff;stroke:#000;stroke-width:7;stroke-miterlimit:10;}
	.st1{fill:none;stroke:#fff;stroke-miterlimit:10;}
</style>
<polygon class="st0" points="168.6,140.1 168.6,60.2 99.4,20.3 30.2,60.2 30.2,140.1 99.4,180.1 "/>
<polygon class="st1" points="168.6,140.1 168.6,60.2 99.4,20.3 30.2,60.2 30.2,140.1 99.4,180.1 "/>
<g>
	<path d="M91.5,78.6c0.9-0.2,1.9-0.5,2.8-0.7l0.9-0.4l0.5,1.2l-0.8,0.4c-1.2,0.8-1.7,1.1-2.9,1.8l-0.5,0.3v11.7
		c0,1.7-0.7,2.5-2.3,2.5c-0.9,0-2.4-0.4-4.3-1.1l-1.5-0.4l-0.1-1.4c1.1,0.1,1.5,0.1,2.3,0.1c1.1,0,1.3-0.1,1.3-0.9v-8l-0.3,0.2
		L86.2,84l-0.8,0.4l-1.3,0.7l-1.6-5.2l1.7-0.1l2.7-0.3v-7.8h-1.6c-0.9,0-1.1,0-2.2,0.1v-1.7c0.8,0.1,1.5,0.1,2.2,0.1h1.6v-5.1
		c0-0.7,0-0.8-0.2-2.2h5c-0.1,1.1-0.2,1.5-0.2,2.2v5.1h1.4c0.8,0,1.3,0,2.2-0.1v1.7c-0.9-0.1-1.3-0.1-2.2-0.1h-1.4V78.6z
		 M105.8,70.1c0.6-1.8,1.3-4,1.5-5.5l0.3-1.5l5.1,1.7l-1,1.1c-0.9,1.3-2.6,3-4,4.2h5c0.8,0,1.3,0,2.2-0.1v1.7
		c-0.9-0.1-1.3-0.1-2.2-0.1h-3.6v5.8h2.6c0.8,0,1.3,0,2.2-0.1v1.7c-0.9-0.1-1.3-0.1-2.2-0.1h-2.6v5.8h2.6c0.8,0,1.3,0,2.2-0.1v1.7
		c-0.9-0.1-1.3-0.1-2.2-0.1h-2.6v6.7h4.1c0.8,0,1.3,0,2.2-0.1v1.7c-0.9-0.1-1.3-0.1-2.2-0.1H99.4c-1.3,0-1.7,0-2.7,0.1
		c0.1-1,0.2-1.3,0.2-2.7V74.7c-0.8,0.7-1.4,1.2-2.3,2l-0.8,0.8l-1-1l0.8-0.7c2.3-2.7,4.8-7.5,5.7-11.5l0.3-1.5l5.1,1.4l-0.8,1.2
		c-1.1,2-1.8,3.2-3,4.8H105.8z M104.8,77.3v-5.8h-3.6v5.8H104.8z M104.8,78.8h-3.6v5.8h3.6V78.8z M101.2,86v6.7h3.6V86H101.2z"/>
	<path d="M111.5,118c0.8,0,1,0,1.6-0.1c-0.1,0.5-0.1,0.8-0.1,1.5v2.9c0,0.8,0,1,0.1,1.5l-0.3,0c-0.3-0.1-0.6-0.1-1.3-0.1H97.3
		c-0.1,0.5-0.2,1-0.4,1.9h16.3c0.8,0,1.3,0,2.2-0.1v1.7c-0.9-0.1-1.3-0.1-2.2-0.1H96.6c-0.2,0.6-0.4,1.3-0.6,2h17h0.4h0.3
		c0.5,0,1,0,1.5-0.1v1.2c0,2.1-0.4,5-0.8,6.4c-0.4,1.4-1.3,2.1-2.6,2.1c-1.2,0-3.4-0.4-5.1-0.9l-1.3-0.2L105,136
		c0.6,0.1,2.3,0.2,3.2,0.2c1,0,1.4-0.3,1.7-1.4c0.4-1.3,0.6-2.9,0.6-4.3H90.9c0.8-1.3,1.5-3.5,1.9-6.8h-3c-0.1,5.9-1.7,10.2-5.3,14
		l-0.6,0.8l-1.1-0.8l0.5-0.8c1.3-3.5,1.8-7.3,1.8-13.8v-6.3c0-1.3,0-1.7-0.2-2.7c0.7,0.1,1.4,0.1,2.7,0.1H97v-0.4
		c0-0.7,0-0.8-0.2-2.2h5.1c-0.1,1.1-0.2,1.5-0.2,2.2v0.4h10.9c0.8,0,1.3,0,2.2-0.1v1.7c-0.9-0.1-1.3-0.1-2.2-0.1h-7.8v2.3H111.5z
		 M107.9,110.8c0,0.6,0,1.1,0.2,2.2h-5.2l0-0.4c0.1-0.8,0.1-1.2,0.1-1.8v-0.3h-7.4v0.3c0,0.6,0,1.1,0.2,2.2h-5.2l0-0.4
		c0.1-0.8,0.1-1.2,0.1-1.8v-0.3h-5.5c-0.9,0-1.1,0-2.2,0.1v-1.7c0.8,0.1,1.5,0.1,2.2,0.1h5.5v-0.8c0-0.7,0-0.8-0.2-2.2h5.2
		c-0.1,1.1-0.2,1.5-0.2,2.2v0.8h7.4v-0.8c0-0.7,0-0.8-0.2-2.2h5.2c-0.1,1.1-0.2,1.5-0.2,2.2v0.8h5.5c0.8,0,1.3,0,2.2-0.1v1.7
		c-0.9-0.1-1.3-0.1-2.2-0.1h-5.5V110.8z M93,131.9l-0.2,0.7c0,1.2-0.3,3.6-0.6,4.9l-0.2,1.2l-4.5-1.9l0.8-0.7c1.2-1.3,2.2-2.7,3-4
		l0.2-0.7L93,131.9z M93.2,115.7h-3.4v2.3h3.4V115.7z M89.8,119.5v2.8h3.4v-2.8H89.8z M96.4,132.2c1.1,1.4,1.9,2.6,2.6,3.7l0.7,0.9
		l-4.2,1.5v-0.9c-0.2-2.4-0.3-3.3-0.5-4.7l-0.3-0.8l1.3-0.5L96.4,132.2z M100.7,115.7h-3.4v2.3h3.4V115.7z M97.3,119.5v2.8h3.4v-2.8
		H97.3z M101.4,131.6c1,0.9,1.8,1.7,2.8,3l0.8,0.6l-4,2.3l-0.1-1.2c-0.3-1.5-0.4-2.3-0.9-3.9l-0.3-0.7l1.2-0.6L101.4,131.6z
		 M106,131.1c1.2,0.6,2.1,1.2,2.9,1.7l0.8,0.4l-3,2.5l-0.3-0.9c-0.3-0.7-0.7-1.7-1.4-2.8l-0.5-0.6l0.9-0.8L106,131.1z M104.9,122.3
		h3.6v-2.8h-3.6V122.3z"/>
</g>
</svg>
