<?xml version="1.0" encoding="utf-8"?>
<!-- Generator: Adobe Illustrator 23.0.1, SVG Export Plug-In . SVG Version: 6.00 Build 0)  -->
<svg version="1.1" id="圖層_1" xmlns="http://www.w3.org/2000/svg" xmlns:xlink="http://www.w3.org/1999/xlink" x="0px" y="0px"
	 viewBox="0 0 200 200" style="enable-background:new 0 0 200 200;" xml:space="preserve">
<style type="text/css">
	.st0{fill:#fff;stroke:#000;stroke-width:7;stroke-miterlimit:10;}
	.st1{fill:none;stroke:#fff;stroke-miterlimit:10;}
</style>
<polygon class="st0" points="169.2,140.1 169.2,60.2 100,20.3 30.8,60.2 30.8,140.1 100,180.1 "/>
<polygon class="st1" points="169.2,140.1 169.2,60.2 100,20.3 30.8,60.2 30.8,140.1 100,180.1 "/>
<g>
	<path d="M85,71.6c1.7,0.4,3.8,1.2,5.4,1.9l1.2,0.4l-3.2,4.5l-0.5-0.9c-1.3-1.7-2.6-3.2-3.7-4.4l-0.8-0.6l0.9-1.3L85,71.6z
		 M93.6,79.4l-0.4,0.8c-1.3,4.7-2.7,9-4.3,12.3l-0.4,1.3l-4.9-3.2l1-0.9c2.3-2.5,4.9-6.2,7.2-10l0.3-0.9L93.6,79.4z M86.6,63.1
		c2,0.7,3.7,1.4,5.4,2.2l1.1,0.4L89.9,70l-0.5-0.9c-1.3-1.8-2.5-3.3-3.7-4.6L85,64l0.9-1.3L86.6,63.1z M110.8,66.7
		c1.3,0,1.8,0,2.7-0.1c-0.1,0.8-0.2,1.4-0.2,2.7v8.5c0,1.3,0,1.8,0.2,2.7c-0.8-0.1-1.3-0.1-2.1-0.1h-0.6H104l0.1,0.3
		c0.9,2,2.3,3.9,3.7,5.3c1.7-1.6,2.8-2.9,3.7-4.2l0.6-1.3l4.3,3.5l-1.3,0.5c-1.8,0.9-3.8,1.8-5.6,2.4l-0.5,0.2
		c1.9,1.4,3.7,2.3,6.2,3l1.6,0.4l-3.6,4.4l-1.2-0.8c-5.5-3-8.3-6.9-9.6-13.7h-2.9v8.8c2.6-0.2,3-0.2,4.3-0.3l1.4-0.3l0.3,1.4
		l-1.2,0.3c-3.5,1.5-7,2.9-10.3,3.9L93,94.8l-1.9-5.5l1.3,0.1l1.2,0h0.7l0.6,0v-20c0-1.3,0-1.7-0.2-2.7c0.7,0.1,1.4,0.1,2.7,0.1h3.9
		v-2.6c0-0.7,0-0.8-0.2-2.2h5.3c-0.1,1.1-0.2,1.5-0.2,2.2v2.6H110.8z M99.7,68.1v4.6h8.9v-4.6H99.7z M99.7,78.9h8.9v-4.7h-8.9V78.9z
		"/>
	<path d="M84.7,114.7c2,0.5,3.9,1.2,5.2,1.8l1.2,0.4l-3,4.3l-0.6-0.9c-1.1-1.4-2.3-2.8-3.7-4.2l-0.7-0.5l0.9-1.3L84.7,114.7z
		 M91.8,122.7l-0.3,0.8c-0.9,4.9-1.9,9.1-3.1,12.3l-0.3,1.2l-4.9-2.7l0.9-1c2.1-2.7,4.2-6.4,6-10.4l0.3-0.9L91.8,122.7z M85.8,106.3
		c1.8,0.5,3.6,1.2,5.3,1.9l1,0.3l-3,4.2l-0.5-0.8c-1.3-1.8-2.4-3.1-3.7-4.4l-0.6-0.4l0.9-1.2L85.8,106.3z M92.3,136.3
		c3-0.6,6.3-1.8,9.2-3.4c-1.9-1.5-3.7-3.6-4.9-5.7h-1c-0.9,0-1.2,0-2.1,0.1v-1.7c0.8,0.1,1.4,0.1,2.1,0.1h14.1c2.4,0,3.6,0,4.5-0.1
		v1.1c-1.4,2.1-3.8,4.4-6.2,5.9c1.8,0.4,3.6,0.6,6.8,0.8l1.9-0.1l-2.2,4.4l-1.7-0.4c-3.1-0.5-6.3-1.4-8.7-2.6
		c-0.1,0.1-0.3,0.1-0.5,0.2c-3.1,1.3-7.3,2.3-11,2.7l-1.1,0.3l-0.7-1.5L92.3,136.3z M115.7,122.1c0,0.6,0,1.2,0.2,2.1
		c-1-0.1-1.3-0.1-2.2-0.1h-0.6h-18c-1.4,0-1.7,0-2.7,0.1c0.1-0.9,0.2-1.4,0.2-2.1v-2.7c0-0.7,0-1.2-0.2-2.1c0.7,0.1,1.4,0.1,2.7,0.1
		h18c1.3,0,1.8,0,2.7-0.1c-0.1,0.8-0.2,1.4-0.2,2.1V122.1z M113.6,113.1c0,1.4,0,1.8,0.2,2.8c-1-0.1-1.3-0.1-2.1-0.1h-0.6H97.2
		c-1.3,0-1.7,0-2.7,0.1c0.1-1,0.2-1.3,0.2-2.7v-4c0-1.3,0-1.8-0.2-2.8c0.8,0.1,1.4,0.1,2.7,0.1H111c1.4,0,1.8,0,2.7-0.1
		c-0.1,0.8-0.2,1.5-0.2,2.8V113.1z M99.2,118.9h-2.7v3.7h2.7V118.9z M98.4,127.3c1.5,1.7,3.3,3,5.6,4.1c1.8-1.2,3.6-2.8,4.5-4.1
		H98.4z M109.2,107.9H99v2.4h10.2V107.9z M99,111.7v2.6h10.2v-2.6H99z M105.4,118.9h-2.7v3.7h2.7V118.9z M111.8,118.9h-2.8v3.7h2.8
		V118.9z"/>
</g>
</svg>
