<?xml version="1.0" encoding="utf-8"?>
<svg version="1.1" id="圖層_1" xmlns="http://www.w3.org/2000/svg" xmlns:xlink="http://www.w3.org/1999/xlink" x="0px" y="0px"
	 viewBox="0 0 45 45" style="enable-background:new 0 0 45 45;" xml:space="preserve">
<style type="text/css">
	.st0{fill:none;}
	.st1{fill:#232323;}
</style>
<g>
	<rect x="4.5" y="4.2" class="st0" width="36.9" height="36.6"/>
	<path class="st1" d="M35.7,26.3c0,0.9-0.2,1.8-0.7,2.7c-0.5,0.9-1.2,1.8-2.1,2.6c-0.9,0.8-2,1.6-3.2,2.3c-1.2,0.7-2.7,1.2-4.3,1.6
		c-1.6,0.4-3.4,0.6-5.1,0.6s-3.6-0.2-5.3-0.6c-1.7-0.4-3.2-1-4.6-1.8C9,32.9,7.9,32,7.1,30.8S5.8,28.3,5.8,27c0-1.4,0.4-3,1.3-4.7
		s2.1-3.3,3.8-4.9c2.1-2.1,4.3-3.6,6.5-4.5c2.2-0.8,3.8-0.8,4.7,0.1c0.8,0.8,1,2.1,0.4,4c-0.1,0.2-0.1,0.3,0,0.4
		c0.1,0.1,0.1,0.1,0.2,0.1c0.1,0,0.2,0,0.3,0c0.1,0,0.2-0.1,0.3-0.1l0.1-0.1c1.8-0.8,3.4-1.1,4.7-1.1c1.4,0,2.3,0.4,3,1.2
		c0.5,0.8,0.5,1.9,0,3.4c0,0.1-0.1,0.3-0.1,0.4c0,0.1,0,0.1,0.1,0.2c0.1,0.1,0.1,0.1,0.2,0.1c0.1,0,0.2,0.1,0.3,0.1
		c0.8,0.2,1.4,0.5,2,0.9c0.6,0.3,1.1,0.9,1.5,1.6C35.6,24.9,35.7,25.6,35.7,26.3z M29.8,26.3c-0.1-1.2-0.7-2.3-1.7-3.2
		c-1-1-2.3-1.6-4-2.1c-1.6-0.5-3.4-0.5-5.3-0.4c-2.8,0.3-5.2,1.2-7.1,2.7S9,26.5,9.2,28.3c0.1,1.2,0.7,2.3,1.7,3.2
		c1,1,2.3,1.6,4,2.1c1.6,0.5,3.4,0.5,5.3,0.4c2.8-0.3,5.2-1.2,7.1-2.7C29.1,29.8,29.9,28.1,29.8,26.3z M23.8,29.4
		c-0.5,1.3-1.6,2.3-3,2.9s-2.9,0.7-4.3,0.2c-1.4-0.4-2.3-1.2-2.8-2.4c-0.5-1.2-0.5-2.4,0.1-3.6c0.6-1.2,1.6-2.1,2.9-2.7
		c1.3-0.6,2.7-0.7,4-0.3c1.4,0.3,2.4,1.2,3,2.3C24.4,26.9,24.4,28.1,23.8,29.4z M18.7,29.6c0.3-0.4,0.3-0.9,0.2-1.3
		c-0.1-0.5-0.4-0.8-0.9-1c-0.4-0.2-0.9-0.2-1.4,0c-0.5,0.2-0.9,0.5-1.2,0.9s-0.3,0.9-0.3,1.3c0.1,0.4,0.4,0.8,0.8,1
		c0.4,0.2,0.9,0.2,1.4,0.1C18,30.4,18.4,30,18.7,29.6z M20.5,27.3c0.1-0.1,0.1-0.3,0.1-0.5c-0.1-0.2-0.1-0.3-0.3-0.3
		c-0.2-0.1-0.3-0.1-0.5,0c-0.2,0.1-0.3,0.2-0.4,0.3c-0.2,0.4-0.1,0.7,0.3,0.9c0.2,0.1,0.3,0.1,0.5,0C20.3,27.6,20.4,27.4,20.5,27.3z
		 M37.7,11.3c1.1,1.2,1.9,2.7,2.1,4.3c0.3,1.6,0.2,3.2-0.3,4.6c-0.1,0.3-0.3,0.6-0.6,0.8c-0.3,0.1-0.6,0.2-1,0.1
		c-0.3-0.1-0.6-0.3-0.8-0.6c-0.1-0.3-0.2-0.6-0.1-1c0.3-1,0.4-2.1,0.2-3.3c-0.2-1.2-0.8-2.1-1.5-3c-0.8-0.9-1.7-1.5-2.8-1.9
		c-1.1-0.3-2.2-0.4-3.3-0.1c-0.3,0.1-0.7,0-1-0.2c-0.3-0.2-0.5-0.5-0.5-0.8c-0.1-0.3,0-0.7,0.2-1s0.5-0.5,0.8-0.5
		c1.6-0.3,3.2-0.3,4.7,0.2C35.3,9.2,36.6,10.1,37.7,11.3z M32.3,13.2c0.8,0.2,1.4,0.7,1.9,1.2c0.5,0.5,0.9,1.3,1,2.1
		c0.1,0.8,0.1,1.5-0.1,2.3c-0.1,0.3-0.3,0.5-0.5,0.6c-0.3,0.1-0.5,0.1-0.8,0.1c-0.3-0.1-0.5-0.3-0.6-0.5C33,18.6,33,18.3,33.1,18
		c0.3-0.8,0.1-1.5-0.5-2.1c-0.5-0.6-1.2-0.8-2.1-0.7c-0.3,0.1-0.6,0-0.9-0.1c-0.3-0.1-0.4-0.4-0.5-0.7c-0.1-0.3,0-0.6,0.1-0.8
		c0.1-0.3,0.4-0.4,0.7-0.5C30.8,12.9,31.6,13,32.3,13.2z"/>
</g>
</svg>
