<?xml version="1.0" encoding="utf-8"?>
<svg version="1.1" id="Calque_1" xmlns="http://www.w3.org/2000/svg" xmlns:xlink="http://www.w3.org/1999/xlink" x="0px" y="0px"
	 width="40px" height="40px" viewBox="0 0 40 40" enable-background="new 0 0 40 40" xml:space="preserve">
<style type="text/css">
	.st0{fill:#fd578f;}
	.st1{fill:#FFFFFF;}
</style>
<g>
	<g>
		<g>
			<g>
				<path class="st0" d="M38.8,20.2c0-7.3-7.3-13.3-16.4-13.3c-9,0-16.4,6-16.4,13.3c0,6.6,5.8,12.1,13.7,13.1
					c0.5,0.1,1.3,0.4,1.4,0.8c0.2,0.4,0.1,1.1,0.1,1.5c0,0-0.2,1.2-0.2,1.4c-0.1,0.4-0.3,1.6,1.4,0.9c1.7-0.7,9.4-5.6,12.9-9.5h0
					C37.7,25.8,38.8,23.2,38.8,20.2"/>
				<g>
					<path class="st1" d="M19.1,16.7h-1.1c-0.2,0-0.3,0.1-0.3,0.3v7.1c0,0.2,0.1,0.3,0.3,0.3h1.1c0.2,0,0.3-0.1,0.3-0.3V17
						C19.4,16.8,19.3,16.7,19.1,16.7"/>
					<path class="st1" d="M27,16.7h-1.1c-0.2,0-0.3,0.1-0.3,0.3v4.2l-3.3-4.4c0,0,0,0,0,0c0,0,0,0,0,0c0,0,0,0,0,0c0,0,0,0,0,0
						c0,0,0,0,0,0c0,0,0,0,0,0c0,0,0,0,0,0c0,0,0,0,0,0c0,0,0,0,0,0c0,0,0,0,0,0c0,0,0,0,0,0c0,0,0,0,0,0c0,0,0,0,0,0c0,0,0,0,0,0
						c0,0,0,0,0,0c0,0,0,0,0,0c0,0,0,0,0,0c0,0,0,0,0,0c0,0,0,0,0,0h-1.1c-0.2,0-0.3,0.1-0.3,0.3v7.1c0,0.2,0.1,0.3,0.3,0.3H22
						c0.2,0,0.3-0.1,0.3-0.3v-4.2l3.3,4.4c0,0,0.1,0.1,0.1,0.1c0,0,0,0,0,0c0,0,0,0,0,0c0,0,0,0,0,0c0,0,0,0,0,0c0,0,0,0,0,0
						c0,0,0,0,0,0c0,0,0,0,0,0c0,0,0,0,0,0c0,0,0.1,0,0.1,0H27c0.2,0,0.3-0.1,0.3-0.3V17C27.3,16.8,27.2,16.7,27,16.7"/>
					<path class="st1" d="M16.3,22.7h-3.1V17c0-0.2-0.1-0.3-0.3-0.3h-1.1c-0.2,0-0.3,0.1-0.3,0.3v7.1v0c0,0.1,0,0.2,0.1,0.2
						c0,0,0,0,0,0c0,0,0,0,0,0c0.1,0.1,0.1,0.1,0.2,0.1h0h4.6c0.2,0,0.3-0.1,0.3-0.3V23C16.6,22.8,16.5,22.7,16.3,22.7"/>
					<path class="st1" d="M33.4,18.5c0.2,0,0.3-0.1,0.3-0.3V17c0-0.2-0.1-0.3-0.3-0.3h-4.6h0c-0.1,0-0.2,0-0.2,0.1c0,0,0,0,0,0
						c0,0,0,0,0,0c-0.1,0.1-0.1,0.1-0.1,0.2v0v7.1v0c0,0.1,0,0.2,0.1,0.2c0,0,0,0,0,0c0,0,0,0,0,0c0.1,0.1,0.1,0.1,0.2,0.1h0h4.6
						c0.2,0,0.3-0.1,0.3-0.3V23c0-0.2-0.1-0.3-0.3-0.3h-3.1v-1.2h3.1c0.2,0,0.3-0.1,0.3-0.3V20c0-0.2-0.1-0.3-0.3-0.3h-3.1v-1.2
						H33.4z"/>
				</g>
			</g>
		</g>
	</g>
</g>
</svg>
