<?xml version="1.0" encoding="utf-8"?>
<svg version="1.1" id="圖層_1" xmlns="http://www.w3.org/2000/svg" xmlns:xlink="http://www.w3.org/1999/xlink" x="0px" y="0px"
	 viewBox="0 0 45 45" style="enable-background:new 0 0 45 45;" xml:space="preserve">
<style type="text/css">
	.st0{fill:#fff;}
</style>
<title>Artboard 3</title>
<desc>Created with Sketch.</desc>
<path class="st0" d="M5.2,13.7c0-0.2,0-0.3,0.4-0.3h5c0.9,0,1.4,0.7,1.7,2.1l0.3,1.1h0.9c0.2-3.2,0.3-4.5,0.3-4.5s-2.1,0.2-3.4,0.2
	H4l-3.4-0.1v0.9l1.2,0.2c0.8,0.2,1,0.3,1.1,1.1c0,0,0.1,2.2,0.1,5.8S2.8,26,2.8,26c0,0.7-0.3,0.9-1.1,1l-1.2,0.2v0.9L4,28h5.7
	c1.3,0,4.3,0.1,4.3,0.1c0.1-0.8,0.5-4.3,0.6-4.7h-0.8l-0.9,1.9c-0.7,1.5-1.7,1.6-2.7,1.6H6.9c-1.1,0-1.6-0.4-1.6-1.4v-5
	c0,0,2.4,0,3.2,0.1c0.6,0,1,0.2,1.2,1.1l0.3,1.1h0.9L10.8,20l0.1-2.9H10l-0.3,1.3c-0.2,0.8-0.3,1-1.2,1.1c-1.1,0.1-3.2,0.1-3.2,0.1
	V13.7z M34,31.7c-0.7,0-0.9-0.3-0.9-0.7l-0.3-1.7l-0.9,0c-0.1,1-0.3,2.1-0.6,3c0.6,0.4,1.4,0.6,2.4,0.6c1.5,0,3.7-0.4,5.7-5.1
	l3.5-8.3c0.3-0.7,0.4-0.7,1.2-1.1l0.5-0.2v-0.8l-2.1,0.1l-2.2-0.1v0.8l0.6,0.2c0.6,0.2,0.8,0.4,0.8,0.8c0,0.2-0.1,0.3-0.2,0.7
	c-0.2,0.6-1.8,4.4-2.6,6.1c-1-2.4-2.3-6-2.4-6.5c0-0.1-0.1-0.2-0.1-0.3c0-0.3,0.2-0.6,0.8-0.7l0.7-0.2v-0.8l-3,0.1l-2.4-0.1v0.8
	l0.4,0.1c0.6,0.2,0.6,0.3,1,1.1c1.5,3.4,3.2,7.7,3.7,9.2C36.4,31,35,31.7,34,31.7L34,31.7z M25.1,24.6l-0.8,0c0.1,1,0.1,2.1,0,3.1
	c0,0,1.7,0.6,3.3,0.6c2.3,0,4.1-1.1,4.1-3.2c0-3.7-5.5-3.1-5.5-5.6c0-1,0.9-1.4,1.9-1.4c0.8,0,1.5,0.3,1.6,0.7l0.5,1.6l0.8,0
	c0-0.9,0.1-1.9,0.2-2.7c-0.7-0.3-2.2-0.5-3.1-0.5c-2.1,0-3.9,0.9-3.9,3c0,3.7,5.4,2.9,5.4,5.6c0,0.9-0.6,1.6-1.9,1.6
	c-1.2,0-1.9-0.6-2.1-1.3L25.1,24.6z M18.2,14.3c-0.5,2.6-1.7,3.6-3.3,3.8v0.8h1.9v6.7c0,1.9,1.2,2.8,2.9,2.8c1.3,0,2.6-0.5,3.1-1.7
	l-0.5-0.6c-0.2,0.4-0.9,0.9-1.8,0.9c-1,0-1.5-0.7-1.5-2.3v-5.9l3.2,0.2l0.2-1.5l-3.4,0.1v-3.3H18.2z"/>
</svg>
