<?xml version="1.0" encoding="utf-8"?>
<!-- Generator: Adobe Illustrator 23.0.1, SVG Export Plug-In . SVG Version: 6.00 Build 0)  -->
<svg version="1.1" id="圖層_1" xmlns="http://www.w3.org/2000/svg" xmlns:xlink="http://www.w3.org/1999/xlink" x="0px" y="0px"
	 viewBox="0 0 45 45" style="enable-background:new 0 0 45 45;" xml:space="preserve">
<style type="text/css">
	.st0{fill:#fff;}
</style>
<title>Artboard 3</title>
<desc>Created with Sketch.</desc>
<path class="st0" d="M24.4,8.6c-6.6,0-11.9,5.3-11.9,11.9c0,2.4,0.7,4.6,1.9,6.5c-1.4-0.2-2.8-0.2-4.2-0.1l-0.1,0
	c-0.6,0-1.1,0.3-1.6,0.7c-1.2,1-1.3,2.7-0.3,3.9c0.6,0.7,1.5,1,2.4,0.9l0.4-0.1c0.2,0,0.5-0.1,0.7-0.1l0,0c-0.1,0.4-0.2,0.7-0.4,1.1
	l-0.1,0.3c-0.1,0.8,0.1,1.5,0.6,2.2c1,1.2,2.7,1.3,3.9,0.3c0.5-0.4,0.8-0.9,0.9-1.5l0-0.1c0.3-1.5,0.5-2.9,0.5-4.4c0,0,0-0.1,0-0.1
	c2,1.4,4.4,2.3,7,2.3c6.6,0,11.9-5.3,11.9-11.9S31,8.6,24.4,8.6 M24.6,27.6c-1.1,0-2.2-0.3-3.1-0.7l0,0c-0.6-0.3-1.2-0.4-1.9-0.4
	c-1.1,0-2.2,0.4-3,1.2l0,0c0.9-0.8,1.4-2,1.4-3.2c0-0.6-0.1-1.1-0.3-1.6l0,0c-0.3-0.8-0.5-1.6-0.5-2.5c0-4,3.3-7.3,7.3-7.3
	c4,0,7.3,3.3,7.3,7.3C32,24.3,28.7,27.6,24.6,27.6"/>
<path class="st0" d="M27.7,17c-0.7,0-1.2,0.3-1.6,0.9l-0.2,0.3c-0.1,0.1-0.2,0.3-0.3,0.4l0,0c-0.1-0.2-0.3-0.5-0.4-0.7l-0.2-0.2
	c-0.4-0.4-0.9-0.6-1.4-0.6c-1.1,0-1.9,0.9-1.9,1.9c0,0.4,0.1,0.8,0.4,1.2l0,0c1,1.3,2.2,2.5,3.6,3.5l0.1-0.1c1.3-1,2.4-2.1,3.4-3.4
	l0-0.1c0.2-0.3,0.4-0.7,0.4-1.1C29.6,17.8,28.7,17,27.7,17"/>
</svg>
