<?xml version="1.0" encoding="utf-8"?>
<!-- Generator: Adobe Illustrator 23.0.1, SVG Export Plug-In . SVG Version: 6.00 Build 0)  -->
<svg version="1.1" id="圖層_1" xmlns="http://www.w3.org/2000/svg" xmlns:xlink="http://www.w3.org/1999/xlink" x="0px" y="0px"
	 viewBox="0 0 45 45" style="enable-background:new 0 0 45 45;" xml:space="preserve">
<style type="text/css">
	.st0{fill:#fff;}
</style>
<title>Artboard 3</title>
<desc>Created with Sketch.</desc>
<g>
	<path class="st0" d="M22.5,10.8c3.8,0,4.3,0,5.8,0.1c1.4,0.1,2.2,0.3,2.7,0.5c0.7,0.3,1.1,0.6,1.6,1.1c0.5,0.5,0.8,1,1.1,1.6
		c0.2,0.5,0.4,1.3,0.5,2.7c0.1,1.5,0.1,2,0.1,5.8c0,3.8,0,4.3-0.1,5.8c-0.1,1.4-0.3,2.2-0.5,2.7c-0.3,0.7-0.6,1.1-1.1,1.6
		c-0.5,0.5-1,0.8-1.6,1.1c-0.5,0.2-1.3,0.4-2.7,0.5c-1.5,0.1-2,0.1-5.8,0.1c-3.8,0-4.3,0-5.8-0.1c-1.4-0.1-2.2-0.3-2.7-0.5
		c-0.7-0.3-1.1-0.6-1.6-1.1c-0.5-0.5-0.8-1-1.1-1.6c-0.2-0.5-0.4-1.3-0.5-2.7c-0.1-1.5-0.1-2-0.1-5.8c0-3.8,0-4.3,0.1-5.8
		c0.1-1.4,0.3-2.2,0.5-2.7c0.3-0.7,0.6-1.1,1.1-1.6c0.5-0.5,1-0.8,1.6-1.1c0.5-0.2,1.3-0.4,2.7-0.5C18.2,10.8,18.7,10.8,22.5,10.8
		 M22.5,8.2c-3.9,0-4.4,0-5.9,0.1C15.1,8.4,14,8.6,13.1,9c-0.9,0.4-1.7,0.9-2.5,1.6c-0.8,0.8-1.3,1.6-1.6,2.5
		c-0.4,0.9-0.6,1.9-0.7,3.5c-0.1,1.5-0.1,2-0.1,5.9s0,4.4,0.1,5.9C8.4,29.9,8.6,31,9,31.9c0.4,0.9,0.9,1.7,1.6,2.5
		c0.8,0.8,1.6,1.3,2.5,1.6c0.9,0.4,1.9,0.6,3.5,0.7c1.5,0.1,2,0.1,5.9,0.1s4.4,0,5.9-0.1c1.5-0.1,2.6-0.3,3.5-0.7
		c0.9-0.4,1.7-0.9,2.5-1.6s1.3-1.6,1.6-2.5c0.4-0.9,0.6-1.9,0.7-3.5c0.1-1.5,0.1-2,0.1-5.9s0-4.4-0.1-5.9c-0.1-1.5-0.3-2.6-0.7-3.5
		c-0.4-0.9-0.9-1.7-1.6-2.5c-0.8-0.8-1.6-1.3-2.5-1.6c-0.9-0.4-1.9-0.6-3.5-0.7C26.9,8.2,26.4,8.2,22.5,8.2L22.5,8.2z"/>
	<path class="st0" d="M22.5,15.2c-4.1,0-7.3,3.3-7.3,7.3c0,4.1,3.3,7.3,7.3,7.3c4.1,0,7.3-3.3,7.3-7.3
		C29.8,18.4,26.6,15.2,22.5,15.2z M22.5,27.3c-2.6,0-4.8-2.1-4.8-4.8c0-2.6,2.1-4.8,4.8-4.8c2.6,0,4.8,2.1,4.8,4.8
		C27.3,25.1,25.1,27.3,22.5,27.3z"/>
	<path class="st0" d="M31.8,14.9c0,0.9-0.8,1.7-1.7,1.7c-0.9,0-1.7-0.8-1.7-1.7c0-0.9,0.8-1.7,1.7-1.7
		C31.1,13.2,31.8,13.9,31.8,14.9z"/>
</g>
</svg>
