<?xml version="1.0" encoding="utf-8"?>
<!-- Generator: Adobe Illustrator 23.0.1, SVG Export Plug-In . SVG Version: 6.00 Build 0)  -->
<svg version="1.1" id="圖層_1" xmlns="http://www.w3.org/2000/svg" xmlns:xlink="http://www.w3.org/1999/xlink" x="0px" y="0px"
	 viewBox="0 0 45 45" style="enable-background:new 0 0 45 45;" xml:space="preserve">
<style type="text/css">
	.st0{fill:#fff;}
</style>
<title>Artboard 3</title>
<desc>Created with Sketch.</desc>
<path class="st0" d="M18.4,11.4c0-0.3,0-0.5,0.7-0.5h8.6c1.6,0,2.4,1.2,2.9,3.6l0.5,1.9h1.6c0.3-5.5,0.5-7.8,0.5-7.8S29.7,9,27.4,9
	H16.4l-5.9-0.2v1.6l2.1,0.3c1.4,0.3,1.7,0.5,1.9,1.9c0,0,0.2,3.8,0.2,10s-0.3,10-0.3,10c0,1.2-0.5,1.6-1.9,1.7l-2.1,0.3v1.6l6-0.2
	h9.8c2.2,0,7.4,0.2,7.4,0.2c0.2-1.4,0.9-7.4,1-8.1h-1.4l-1.6,3.3c-1.2,2.6-2.9,2.8-4.7,2.8h-5.7c-1.9,0-2.8-0.7-2.8-2.4v-8.6
	c0,0,4.1,0,5.5,0.2c1,0,1.7,0.3,2.1,1.9l0.5,1.9h1.6l-0.2-4.8l0.2-5h-1.6l-0.5,2.2c-0.3,1.4-0.5,1.7-2.1,1.9
	c-1.9,0.2-5.5,0.2-5.5,0.2V11.4H18.4z"/>
</svg>
