<?xml version="1.0" encoding="utf-8"?>
<!-- Generator: Adobe Illustrator 23.0.1, SVG Export Plug-In . SVG Version: 6.00 Build 0)  -->
<svg version="1.1" id="圖層_1" xmlns="http://www.w3.org/2000/svg" xmlns:xlink="http://www.w3.org/1999/xlink" x="0px" y="0px"
	 viewBox="0 0 45 45" style="enable-background:new 0 0 45 45;" xml:space="preserve">
<style type="text/css">
	.st0{fill:#fff;}
</style>
<title>Artboard 3</title>
<desc>Created with Sketch.</desc>
<g>
	<path class="st0" d="M9.4,17.9H15v18H9.4V17.9z M12.2,8.9c1.8,0,3.2,1.5,3.2,3.3c0,1.8-1.5,3.3-3.2,3.3c-1.8,0-3.3-1.5-3.3-3.3
		C9,10.4,10.4,8.9,12.2,8.9"/>
	<path class="st0" d="M18.5,17.9h5.4v2.5H24c0.7-1.4,2.6-2.9,5.3-2.9c5.7,0,6.7,3.7,6.7,8.6v9.9h-5.6v-8.8c0-2.1,0-4.8-2.9-4.8
		c-2.9,0-3.4,2.3-3.4,4.6v8.9h-5.6V17.9z"/>
</g>
</svg>
